<svg xmlns="http://www.w3.org/2000/svg" width="1200" height="499">
  <path fill="none" d="M-1-1h1202v501H-1z"/>
  <g>
    <path fill="#447638" d="M-8.5-3.5h1223v508H-8.5z"/>
    <path fill="#4b823e" fill-rule="evenodd" stroke="null" stroke-width="1.5393" d="M188.3-12.2c-9.2 9.3-9.9 10.6-9.8 17.7l.1 5.2L168.2 21c-15.9 15.7-19.9 21.4-18 25 2.4 4.4 11.1-2.6 23.8-19 8.6-11.1 8.5-11 13.2-11 7.6 0 7.5 0 18-12.5 5.4-6.3 6.1-7.5 6-9.2-.4-3.8-2.1-3-8.3 3.5-5.3 5.6-8 7.2-8 4.8 0-.6 4.6-6 9.1-10.8 2-2 2.3-4.8.8-6-1.1-1-3 0-6 3.3l-5.1 5.5c-2.7 2.8-4.1 3.5-5 2.3-.3-.7 2.4-4.1 7.5-9.6 3.6-3.9 4.2-5 3.4-6.4-1.4-2.6-3.1-1.6-11.3 6.8M72.9-1c-.4.4-.6 3-.6 6 .1 5 0 5.3-2.2 8.7-4.7 7.1-7 8-19.7 7.8-4.8-.1-9.1 0-9.5.3-1.2.7-1 9.7.1 11.2a13 13 0 0 1 1.6 3.6c.3 1.2 1.4 3.5 2.3 5 1.6 2.4 2.3 3.3 4.4 5.8 2.3 2.6 4.7 6 5.7 8.2 1.7 3.8 5.4 4.5 9 1.7.8-.7 2-1.2 2.5-1.2.6 0 1.9-.6 3-1.2 1-.7 3-1.5 4.3-2 1.3-.3 3.3-1.4 4.4-2.3l2-1.7-1.3-2.5c-1.7-3.3-1.5-3.9 2.4-5.9 3.7-1.9 6.1-2 10-.7 3.2 1.1 6.2 1.1 8.4 0 1-.4 2.9-1 4.4-1.2 1.5-.2 3.6-1 4.6-1.5 1-.7 2.7-1.4 3.7-1.6 1-.2 2.5-1 3.3-1.6.9-.7 2.1-1.2 2.8-1.2.8 0 2-.6 2.9-1.2.8-.7 2-1.3 2.4-1.3 4.1 0 25.9-12.8 25.9-15.1 0-9-14.6-14.5-26.3-10-4.8 1.9-17.1 2-20.5.2-1.1-.6-4.1-1.3-6.6-1.6A24 24 0 0 1 90 2.2 17 17 0 0 0 85.2 1a27 27 0 0 1-5.8-1.5C76.1-2 73.8-2.1 72.9-1m218.7-.3c-6.9.5-12 3.2-19.4 10.2l-9.1 8c-7.3 6.4-7.3 7-.2 14.2 7.6 7.8 7.1 7.7 12.6 2.8 7-6.1 8-3.6 3.8 9.3a248 248 0 0 0-4 14.7 671.8 671.8 0 0 1-5.8 21.6l-1.8 6.8a226.8 226.8 0 0 0-4.5 16.8c-2 8.1-1.8 8.4 8.4 11 2.6.5 7.7 1.9 11.4 3a354.6 354.6 0 0 0 17 4.5 293.2 293.2 0 0 0 21.9 5.6c1 .3 1.5 0 2-.9 1.1-2 3.7-10.4 3.7-11.8 0-.6.5-2.2 1-3.5.5-1.2 1.4-4 1.8-6.3a87 87 0 0 1 1.7-6.7c1-3.3 2.6-9 4-15.4a37 37 0 0 1 1.8-5.9c.4-.7 1-2.6 1.2-4.3.2-1.7 1-4.4 1.6-6a17 17 0 0 0 1.1-4c0-.6.7-3.6 1.6-6.6l2-7c.8-3 3.8.7 5.3 6.6 1.2 5 2.1 5.1 16 1.1 5-1.4 5.6-3.6 2.9-10.3-1.3-3.3-4.1-11.8-4.7-14.4-.7-3.2-3.8-9.1-6.2-11.9-3.1-3.7-6-5.6-17.6-11.7l-3-1.6-5 2.7c-9 4.8-16.3 2.8-20.6-5.7-2.3-4.5-8.1-5.9-20.9-4.9m-82.7 44l-2 4.8c-2.1 5-2.2 25 0 30 .7 1.8 1.3 3.8 1.3 4.4 0 4 9.5 18.2 15.4 23 1.7 1.3 3 2.9 3 3.4 0 1.6-1.6 7.6-2.6 10-3 7.2-1.8 10.8 3.2 9 1.6-.5 4.7-1.3 6.9-1.6 8.6-1.6 8.6-2.8.3-11.2a78 78 0 0 1-6.5-7c0-.3.8-2.2 1.8-4.2 5.6-11.8 4.2-30.9-3.2-45.6-6-11.7-15.7-20-17.6-15m-91.1 7.2a11 11 0 0 0-2 3c0 .4-.6 1.4-1.4 2.4-.8 1-2 2.5-2.5 3.6a600.2 600.2 0 0 0-11.8 18.5c-.7 1-.8 1.1-4 0a24 24 0 0 0-5.6-1c-1.1 0-3.3-.6-4.7-1.2-5-2.3-8.1-1.5-8.1 2.2 0 2.7 1.8 4 6.3 4.7 6.1.8 7.4 4 2 5.4l-5.3 1.8c-2.8 1.2-6.2 2.4-12.6 4.4l-9 3-8 2.8c-17.6 5.5-18 5.9-14.1 16.3 1 2.9 2.4 6.8 2.9 8.6.5 1.9 1.2 3.7 1.4 4 .3.4.9 2 1.3 3.7.4 1.7 1.2 3.9 1.6 4.9.5 1 1.3 3 1.7 4.6 1 3.5 2.6 8.1 4.1 11.8a51 51 0 0 1 1.8 5.5c.4 1.5 1 3 1.2 3.4.3.3 1 2.1 1.5 4s1.8 5.7 2.9 8.6c1 2.9 2.2 6.4 2.6 8 .7 3 3.7 5.9 5.3 5.2 2.9-1.2 6-1 6.5.3 1 3.1 3.8 2.9 15.8-1.3 5.3-1.8 6.7-3.1 6.7-6v-2.3l5-2c2.9-1 5.5-1.9 5.9-1.9.4 0 2-.5 3.4-1.2a109 109 0 0 1 12.5-4.3l8.9-3.1c2.9-1 6.5-2.3 8-2.7 1.5-.5 3.7-1.2 5-1.8a127 127 0 0 1 12-4c2-.7 4.7-1.6 6-2.2 3.2-1.4 5-1.3 6.2.5 1.3 2 5.5 2.1 9.4.4 1.3-.6 4-1.6 6-2.1 4.6-1.4 7-3.5 6.7-5.8-.3-1.6 0-2 3.1-3.9 1.9-1.1 3.6-2.4 3.8-2.9a50 50 0 0 0-3.8-12.8l-1.7-4.9c-1-3.5-2.5-8-4.1-12-1.3-3.3-2.8-7.7-4.2-12.6-.6-2-1.4-4.3-1.8-5-.4-.6-1-2.5-1.6-4.2-1.3-4.7-2.8-9-4-12-1.6-4-3.1-8.5-4.1-12-1.8-6.5-4.6-6.8-18.7-1.6l-8 2.8c-5.5 1.7-12 4-13.3 4.6l-4.3 1.5c-1.7.5-5.4 1.7-8.3 2.8-10 3.7-10.8 3-5.5-5 1-1.4 2.2-3.5 2.7-4.5.6-1 2-3.4 3.4-5.3 1.4-1.8 2.5-3.7 2.5-4 0-.4.5-1.2 1.2-1.8 1.5-1.4 2.1-4.5 1.3-6.6-1-2.7-3.7-2.4-6.1.7m97.1 2.2c1.7 1.7 1.4 3.1-.7 4-3 1-4.9-2.3-2.6-4.6 1.3-1.3 1.7-1.2 3.3.6M-4.5 63.9C-31 75.2-23.8 112 4.8 112c22 0 34-23.7 20.5-40.7A27.5 27.5 0 0 0-4.5 64M166 70.5c.9 1.4 1.6 3.3 1.6 4.1 0 .8.7 2.9 1.5 4.6.8 1.7 1.5 3.7 1.5 4.6 0 .8.6 2.4 1.2 3.4s1.4 3.2 1.6 4.6c.2 1.5 1 3.6 1.6 4.7a8 8 0 0 1 1.2 3c0 .7.7 2.7 1.5 4.5.9 1.8 1.6 4 1.6 4.6 0 .8.5 2.4 1.1 3.6.7 1.2 1.4 3.3 1.7 4.6.2 1.3.9 3.3 1.5 4.3.7 1 1.2 2.6 1.2 3.4 0 .8.7 2.9 1.5 4.7.8 1.7 1.7 4.7 1.9 6.5l.4 3.4-3.7 2c-2 1-4.4 1.8-5.2 1.8-.7 0-2.8.7-4.4 1.6-1.7.8-3.8 1.5-4.6 1.5-.8 0-2.3.5-3.4 1.2-1 .6-3 1.3-4.4 1.6-1.3.2-3 .8-3.8 1.3-.7.4-2.8 1.1-4.6 1.5a20 20 0 0 0-5 1.8c-1.1.7-2.7 1.2-3.5 1.2-.9 0-2.5.5-3.8 1.2-1.2.6-3.3 1.4-4.6 1.6-1.3.2-3.2 1-4.2 1.5-1 .6-3 1.3-4.2 1.5-1.3.2-3.6 1-5 1.5a99 99 0 0 1-12 4.2 23 23 0 0 0-4.6 1.8c-.7.4-2.4 1-3.8 1.2a19 19 0 0 0-4.6 1.6 9.8 9.8 0 0 1-3.4 1.1c-.6 0-2.7.7-4.5 1.6-1.8.8-3.9 1.5-4.6 1.5-.7 0-2.7.7-4.4 1.6-1.7.8-3.8 1.5-4.6 1.5-.8 0-2.3.6-3.4 1.2-5.7 3.5-10 1.5-11-5.2-.3-1.4-1-3.3-1.7-4.4-.6-1-1.2-2.6-1.2-3.4 0-.8-.7-2.8-1.5-4.5-.8-1.7-1.5-3.7-1.5-4.5 0-.8-.6-2.5-1.2-3.7-.7-1.3-1.4-3.4-1.7-4.8-.2-1.3-1-3.2-1.6-4.2-.6-1-1.1-2.6-1.1-3.4 0-.9-.7-3-1.6-4.7-.8-1.7-1.5-3.7-1.5-4.6 0-.8-.5-2.4-1.2-3.5-.6-1-1.4-3-1.6-4.3-.2-1.3-1-3.3-1.5-4.5-2.7-5.3-2.7-11 0-11.1.5 0 2.3-.7 4-1.5 1.7-.9 3.8-1.5 4.6-1.6.9 0 2.4-.5 3.4-1.1 1-.6 3-1.3 4.3-1.6 1.3-.2 3.5-1 4.7-1.6 1.3-.7 2.9-1.2 3.5-1.2.6 0 2.5-.7 4.4-1.5 1.8-.9 3.9-1.6 4.7-1.6.8 0 2.7-.7 4.3-1.5a13 13 0 0 1 4.5-1.6c.8 0 2.4-.5 3.4-1.1 1-.6 3-1.4 4.3-1.6 1.3-.2 3.4-1 4.6-1.6 1.3-.7 3-1.2 3.8-1.2.8 0 3-.7 4.6-1.5 1.7-.9 3.8-1.6 4.6-1.6.8 0 2.3-.5 3.4-1.2 1-.6 3-1.3 4.3-1.6 1.4-.2 3.4-1 4.4-1.6 1-.6 2.6-1.1 3.4-1.1.8 0 3-.7 4.8-1.6 1.8-.8 3.9-1.5 4.6-1.5.7 0 2.3-.5 3.5-1.2 1.3-.6 3.3-1.4 4.7-1.6 1.3-.2 3.2-1 4.2-1.5 1-.6 3-1.3 4.2-1.5 1.3-.2 3.4-1 4.6-1.6 3.8-2 6-1.7 7.8 1.5M9.5 72.7A15.1 15.1 0 0 1 5 102.4c-18.1 0-22-24.2-4.7-29.6 4.8-1.6 4.4-1.6 9.2 0M148.1 82c-9 2.2-15.7 17.4-10.6 24.7 9 13 23.8 13.1 32.3.1 1.2-1.8 1.7-11.7.7-15-2-7-13.3-12-22.4-9.8m9.4 5.7c5.6 1.5 9 7.2 7.8 13.3-1.4 8-10.4 12.3-17.1 8.4-13-7.6-5.2-25.5 9.3-21.7m-37.7.8a102 102 0 0 1-6.2 2 39 39 0 0 0-5.1 1.9c-.8.4-2.7 1-4.3 1.5-3.3 1-7.8 2.5-11.8 4-2.6 1.1-7.4 2.8-13.5 4.7-1.5.4-5.1 1.7-8 2.7-2.9 1-6.5 2.3-8 2.7-1.5.5-3.6 1.3-4.6 1.8a18 18 0 0 1-4.1 1.3c-5.1 1-5.3 4-1.2 14.6a37 37 0 0 1 1.6 4.9c.2 1.2.8 2.8 1.2 3.7.5.8 1.3 3 1.8 4.6 1 3.5 2.5 8 4 12 1.6 4.2 3.1 8.5 4.3 12.6 1.5 4.7 3.6 9 4.7 9.4 1.3.4 8.1-1 10.4-2.1 1-.5 3-1.3 4.6-1.7 3.5-1 8.1-2.6 11.8-4.1a51 51 0 0 1 5.5-1.8c1.5-.4 3-1 3.4-1.2.3-.3 2.1-1 4-1.5a149 149 0 0 0 8.6-2.8l8-2.8 16-5.5c4.8-1.8 5.6-4.3 3.2-9.7a109 109 0 0 1-4.4-12.5l-3.1-9c-1-2.8-2.3-6.5-2.7-8.2a36 36 0 0 0-1.7-5.3c-1.4-3-4-10.4-4.5-12.3-1-4.6-4.5-6-9.9-4m3.2 5.7c1 .7 4 6.7 4 8 0 .7.6 2.8 1.5 4.6.8 1.8 1.5 4 1.5 4.7 0 .8.5 2.4 1.2 3.4.6 1 1.4 3 1.6 4.4.2 1.4.8 3 1.3 3.8.4.8 1.1 2.9 1.5 4.6.4 1.8 1 3.7 1.5 4.2.4.5 1.1 2.5 1.5 4.5.4 2 1 3.7 1.3 3.9 2.1 1.3-1 5-4.7 5.6a14 14 0 0 0-4.3 1.4c-1 .6-3 1.3-4.3 1.6-1.3.2-3.4 1-4.6 1.6a9.8 9.8 0 0 1-3.4 1.1c-.7 0-2.7.7-4.5 1.6-1.8.8-4 1.5-4.6 1.5-.8 0-2.7.7-4.4 1.6-1.7.8-3.8 1.5-4.6 1.5-.8 0-2.3.5-3.4 1.1-1 .7-3 1.4-4.4 1.6-1.3.3-3 .8-3.8 1.3a17 17 0 0 1-4.4 1.6c-1.7.3-4 1.2-5.4 1.8-3.7 1.9-7 1.2-7-1.4 0-.8-.7-2.9-1.5-4.7-.9-1.8-1.6-3.8-1.6-4.4 0-.6-.6-2.6-1.5-4.4-.8-1.8-1.5-4-1.5-4.8 0-.8-.6-2.3-1.2-3.3-.6-1.1-1.3-3-1.6-4.4-.2-1.4-.8-3.1-1.3-3.9-.5-.7-1.2-2.8-1.5-4.6-.3-1.7-1-3.6-1.6-4.2-3.4-3.8-1.3-10 3.7-10.8a15 15 0 0 0 4.4-1.5c1-.6 3-1.3 4.6-1.5 1.4-.3 3.5-1 4.6-1.6 1-.7 2.6-1.2 3.4-1.2.9 0 3-.7 4.6-1.5 1.7-.9 3.8-1.5 4.6-1.6.8 0 2.3-.5 3.4-1.1 1-.6 3-1.4 4.3-1.6 1.4-.2 3.4-1 4.6-1.5 1.2-.6 3.3-1.3 4.6-1.6a15 15 0 0 0 4.3-1.6c1-.6 2.6-1.2 3.5-1.2.8 0 2.3-.4 3.4-1a23 23 0 0 1 5.2-2l1 .4m40.1 29c-4.6 1.5-6.2 3.9-4.2 6.3l1.1 1.5 3.3-1.2c4.3-1.5 4.9-2 4.9-4 0-2.9-1.5-3.6-5-2.5m221.3 6.5c-7.7 5.4-5.8 27.9 2.9 33.2 3.9 2.3 5.3 4.9 6 10.5 3.2 23.8 6.2 33 10.8 33 4.1 0 2.9-14.1-2.8-31.3-2-6.4-2.1-10.5-.3-13.3 8.9-12.8-5.3-40-16.6-32.1m-219.8 5.2c-2.2.9-3.5 3.3-2.7 5 1.5 2.8 9.9.3 10.4-3.1.3-2.4-4-3.4-7.7-1.9m-190.5 5.4c-1.8.3-4 1-4.9 1.5-.9.5-2.4 1.2-3.5 1.4-4.3.9-4.2.2-4.4 27.3-.2 30.4-.4 29 4 31.5 1.8 1 3.8 1.9 4.4 1.9.6 0 3.2.5 5.7 1.2a36.4 36.4 0 0 0 17 .3l6-1.3c3.3-.4 8.8-3.5 9.2-5.1l.7-3c.4-2.2 1.5-2.9 5.4-3.5 2.5-.4 8.4-5.8 8.4-7.7 0-.5.6-2.1 1.4-3.4 2-3.7 2.3-12.3.6-15.8-.7-1.5-1.4-3.4-1.6-4.2-1.3-4.4-6-8.8-10.5-9.6-3.1-.5-4-1.2-4-3.3 0-6.5-16.1-10.4-33.9-8.2m25.1 4.8c7 2.5 5.8 5.2-3 7.1-13 2.9-30.7.2-30.7-4.7 0-4.1 24.1-5.9 33.7-2.4m226.4.3c-6.9 2.8-11 9.3-10.9 17.4 0 4.9-.8 6.6-3.4 6.6-.4 0-2 .5-3.4 1.1a28 28 0 0 1-4.7 1.6c-2.5.6-8 3.4-8 4.2 0 1 2.4 9.3 3 10 .3.3 1 2.1 1.5 4 1 3.9 2.5 8.3 4.2 12.3a51 51 0 0 1 1.8 5.6c.4 1.5.9 3 1.2 3.4.2.3.9 2 1.4 4 4.1 14.5 6 17.7 9.6 16.2l5-1.8c3.4-1 8-2.6 11.7-4 2.9-1.2 6.5-2.4 12.6-4.3l9-3c2.8-1.1 6.4-2.4 8-2.8 7-2.2 10.9-3.6 13.2-4.6 1.3-.7 3.4-1.3 4.6-1.5 6.1-1.1 8.7-4.7 6.4-9-.5-1.1-1.4-3.3-1.8-4.9l-2.7-8-3.1-9c-2-6.3-3.7-11.1-6.8-19.5l-1.9-5.9c-1.1-4.4-3.5-4.4-14.3 0-6.6 2.6-7.7 2.4-12-2.4-5.8-6.6-12.9-8.6-20.2-5.7m99.2 6.2c-1.6 1.4-2.8 2.9-2.8 3.3 0 .4-.7 2-1.5 3.6-.8 1.5-1.7 3.9-2 5.2-.2 1.2-.8 3-1.3 3.8-.7 1-1.1 3.8-1.4 8.3-.2 3.7-.9 8.4-1.5 10.3-.5 2-1.2 7.6-1.5 12.6-.4 5-1 10.6-1.5 12.3-.5 1.8-1 6.8-1.3 11.1-.2 4.4-.8 9.5-1.3 11.3-.5 1.9-1.2 7.7-1.5 13-.3 5.2-1 10.9-1.5 12.6-3 9.3-1.8 19.4 2.3 20.3 1 .2 3.2 1.1 4.8 2 1.5.7 3.3 1.4 4 1.4.6 0 2 .5 3 1.1 1 .6 3 1.3 4.4 1.6 1.3.2 2.8.8 3.4 1.3.5.4 2.2 1.1 3.8 1.5 1.6.3 3.8 1.2 4.9 1.9 1.1.6 2.5 1.2 3 1.2 2 0 2.6 1.6 1.3 4.1-.7 1.3-1.4 3.2-1.6 4.2-1.8 7.7-5 10.4-9.2 7.8-1-.7-3-1.4-4.4-1.7-1.3-.2-3.3-1-4.3-1.6-1-.6-2.4-1.1-3.1-1.1-.7 0-2.5-.7-4.1-1.6-1.6-.8-3.6-1.5-4.3-1.5-.8 0-2.3-.5-3.3-1.2-4.5-3-10.4-1-11.2 3.7-.7 4.9 2 6.9 15.8 11.5a46 46 0 0 1 5 2c1.1.6 3 1.3 4.3 1.5 1.1.3 3 1 4 1.7a8 8 0 0 0 3.3 1.1c.7 0 2.6.7 4.2 1.6 1.6.8 3.5 1.5 4.2 1.5.6 0 2 .5 3.1 1.2s3 1.4 4.4 1.6c1.2.2 3.2 1 4.2 1.6a8 8 0 0 0 3.1 1.1c.7 0 2.5.7 4 1.6 1.7.8 3.5 1.5 4.2 1.5.7 0 2.5.7 4.1 1.6 1.6.8 3.5 1.5 4.2 1.5.7 0 2.1.6 3.1 1.2 1 .7 2.4 1.3 3 1.3.5 0 2.8.7 5 1.6 6.6 2.7 10.4 1 10.4-5 0-3.8-3.5-6.9-9-8-1-.3-2.6-.8-3.3-1.3-.7-.5-2.7-1.2-4.3-1.6-1.7-.4-3.4-1-4-1.5-.5-.5-1.9-1-3-1.3-1.2-.2-3.5-1-5.2-1.8-1.7-.8-3.6-1.4-4.2-1.4-2.2 0-2.7-4-.7-6.2.4-.5 1-2.2 1.4-3.8 1.6-7 4.9-8.8 10.7-5.8a13 13 0 0 0 4.2 1.6 8 8 0 0 1 3.3 1.2c1 .6 2.9 1.3 4 1.6 1.2.2 3 1 4.1 1.6a8 8 0 0 0 3 1.1c.6 0 2.6.7 4.5 1.6 5.1 2.4 10.7 2.4 12.8 0a174.4 174.4 0 0 0 15.7-21.9c2.1-2.8-1-8.6-4.8-8.6a16 16 0 0 1-4.2-1.6c-1.7-.8-3.6-1.5-4.2-1.5a8 8 0 0 1-3-1.1c-1.1-.7-3.1-1.4-4.5-1.6-1.3-.3-3-.9-3.8-1.3-.7-.5-2.8-1.2-4.6-1.6-1.8-.4-3.7-1-4.2-1.5a10 10 0 0 0-4-1.3c-1.7-.2-3.9-.9-5-1.5-1-.6-3.1-1.3-4.8-1.5-1.7-.3-4-1-5.3-1.6-1.1-.6-2.9-1.1-3.8-1.1-1 0-3.4-.7-5.4-1.6-2-.8-4.4-1.5-5.4-1.5s-2.7-.6-4-1.3a18 18 0 0 0-5.1-1.6c-1.7-.2-3.5-1-4.7-2l-1.9-1.7.3-6.7c.5-10.6 2.4-13.9 6.7-11.4 1.2.6 3 1.4 4.2 1.6 1.2.2 3 1 4 1.6 1 .6 2.5 1.2 3.1 1.2.7 0 2.6.7 4.3 1.5 1.7.8 3.6 1.5 4.3 1.5.6 0 2 .6 3 1.2 1.1.7 3 1.4 4.4 1.6 1.4.3 3.2 1 4 1.6.8.7 2.1 1.2 2.9 1.2.8 0 2.8.7 4.5 1.6 5 2.6 13.4 2.5 16.1-.2 5.5-5.4.2-13.7-10-16a8 8 0 0 1-3-1.2 11 11 0 0 0-3.7-1.4c-1.5-.4-3.9-1.2-5.2-1.9-1.3-.7-3-1.2-3.6-1.2a8 8 0 0 1-3.1-1.2c-1-.6-3-1.4-4.1-1.6-1.2-.3-3-1-4-1.6-1-.6-3-1.2-4.4-1.5-1.4-.2-3-.8-3.3-1.3-.4-.5-1.8-1-3-1.2-1.3-.2-3.6-1.1-5.3-2l-3-1.7-.3-5.4c0-3.1.3-7.8.9-11 1.7-10.1 2-13.5 2.2-27.6l.2-13.9-2.2-2.6a10.2 10.2 0 0 0-3.7-3c-.8-.2-2.5-.9-3.6-1.5a8.8 8.8 0 0 0-10.8 1.4m-87.9-.4c6.8 3.4 7.5 7.2 1.7 8.8l-5.9 2c-10 4.1-12.3 4-12.3-.5 0-8.3 9.2-14 16.5-10.3m-221.9 8c7.8 7.3 5.3 28-3.4 28-3.4 0-3.6-.7-3.6-14.7 0-10.9.1-13 1-13.9 1.4-1.4 4.1-1.1 6 .6m249 3.8c1 1.5 3 7 5.3 14.4l2.8 8a245.2 245.2 0 0 1 4.7 14.1c.7 2.2-3 4.2-14.5 7.7-3.7 1.1-8.3 2.7-11.7 4-3.2 1.3-7.4 2.7-12.6 4.3l-5.9 2c-7.8 3.4-11 3.6-12 .8-.2-1-1-3-1.6-4.6-1.2-3.2-2.6-7.3-4.2-12.7-.6-2-1.4-4.2-1.8-4.9-.7-1.4-3-8-4-11.8-.9-3.6.3-5.2 5-6.5 2-.5 5.9-1.8 8.8-2.9l8-2.8c6-1.9 10.8-3.5 12.6-4.3 2-.8 8-2.8 12.7-4.2 1.5-.5 3.3-1.1 4-1.5 1.9-1.1 3.2-.8 4.4 1m172 46c-26.7 10.4-19.7 49 8.8 49 24.5 0 35.2-32 15.4-45.7-7.2-5-16.6-6.2-24.2-3.2m14 9.2a15 15 0 0 1 8.7 21.6c-8 14-29.6 8.6-29.6-7.5 0-10.6 10-17.4 20.9-14.1m-391.8.3C44 220 33.3 229.4 38 236.3a423 423 0 0 1 7.9 11.6c2.5 3.5 2.5 4.4.9 9.2-.7 2-1.3 4.2-1.3 5 0 .8-.5 2.9-1.1 4.7-1 3-1.7 5.1-4.2 15.6l-2.1 7.2c-.7 2-1.2 4-1.2 4.7 0 .6-.4 2.4-1 3.8-.5 1.5-1.5 4.8-2 7.4-2.5 10-3.3 12.7-4.4 16-2.3 6.7-2.3 12.3 0 13.5 3.3 1.7 6.3-1.5 7.4-8.1.4-2.1 1.1-4.6 1.5-5.4.5-.9 1-2.8 1.3-4.3a44 44 0 0 1 1.5-6.2c1-3.2 1.5-4.9 4.3-16 1.6-6.4 3-11.3 4.4-16 .7-2.2 1.5-5.5 1.8-7.3a21 21 0 0 1 1.2-4.4c.4-.6 1-2.6 1.3-4.4 1.4-6.6.8-6.7 19.4 2.2l10.4 5c8 3.7 8.5 4.5 6.5 10.4-1.3 4.1-2.6 8.8-4.3 15.7-1.7 6.8-3 11.6-4.3 15.7-2.7 8.2-1.9 13.9 2 13.9 1.8 0 4.6-4 5.6-8 1.2-5.2 2.5-10.3 4-15.7 1.8-6 3-11 4.3-16.4 2-8.5 3.4-9.8 8.4-7.7 1.2.5 3.9 1.2 6 1.6 2 .4 4.5 1 5.4 1.5.8.4 2.8 1 4.3 1.2 8.4 1.3 9.2 2.6 6.5 11.3a220 220 0 0 0-3.7 14l-2.1 7.7c-1.6 5.4-3.7 13.1-4.7 17.2a184 184 0 0 1-4 14.8 47 47 0 0 0-1.6 6.2c-.2 1.5-1 4-1.6 5.7-2.3 6-1.3 10.3 2.5 10.3 3 0 4.3-1.4 5.3-6 1-4.1 2.3-9.2 4-15 1.1-3.6 1.8-6.3 3.8-14.1l2.1-7.7a42 42 0 0 0 1.5-6c0-.6.5-2.5 1.2-4.3a49 49 0 0 0 1.8-6.8c.4-2 1-4 1.3-4.7.3-.7 1-3.1 1.5-5.4.5-2.3 1.5-6 2.3-8.2l1.5-4h3.6c6.6 0 31.4 1.6 33.3 2 2.4.7 2.6 2.2 1 7.5l-1.9 6.7a2009.2 2009.2 0 0 1-8 30.3l-2.2 8.6-2.2 7.3c-2.1 5.9-1 10 3 10 1.7 0 4.4-2.6 4.4-4.3 0-.6.5-2.4 1-3.8.6-1.5 1.5-4.8 2.1-7.4 2.5-9.8 3.2-12.7 4.3-16 .7-1.8 1.4-4.6 1.6-6.1.2-1.5.7-3.3 1-3.9.3-.6 1-3.4 1.7-6.1 5-22 6.5-24.7 13.9-26.4 8-1.7 13.3-7.8 12.3-14-1-5.4-11.4-16.7-19.7-21.3l-4.6-2.8c-2.9-1.8-15.4-8.2-20.3-10.3a73.6 73.6 0 0 0-11.6-4.5c-1.4-.4-2.7-.9-2.9-1.2-.2-.3-2-.9-3.9-1.3-2-.4-4.2-1.1-5.1-1.6-1-.4-3.4-1.2-5.6-1.7a775 775 0 0 1-16.5-4c-2.5-.7-6.1-1.4-8-1.6a207.1 207.1 0 0 0-52-2.7m-72.7 14.6c-3 .6-8.4 3.9-9.8 6-1.4 2.1-3.8 3-5.6 2-6.3-3.4-15.4-7.9-16-7.9-1 0-3.7 3.5-4.3 5.6-.2.8-.8 2-1.2 2.4-.4.5-1.3 2-2 3.4a7303.9 7303.9 0 0 0-19.3 37c-1 1.2-1.3 5-.5 5.6.8.7 5 2.9 23.6 12.5a8097 8097 0 0 1 40.3 21c5.4 2.9 6 2.6 10.3-5.8A2247.9 2247.9 0 0 0 15 288l5.3-10c4.6-8.3 4.1-9-10.3-15.8-4.6-2.2-5.3-3.5-4.1-8 3.1-11.9-7.8-23-20.4-20.8m10.3 7.8c4.5 3.4 6.5 11 3.6 13.5-1.2 1-1.4 1-7.7-2.2l-9.2-4.7c-4-2-4-4.2 0-6.8C-13 238-8 238-4 241m-26.6 9.5l21.9 11.5c22.4 11.5 20.7 10 17.3 16.3l-6.3 12c-11.9 23-9.5 21.4-21.8 15.1-13.6-7-31.7-16.4-38.2-19.9-4.2-2.2-5.1.5 9.8-28.5 2.4-4.7 5.1-9.2 6-10l1.4-1.3 3 1.3 6.9 3.5m271.5 24.5c-1.2.5-4 1.2-6.1 1.5-2.2.3-5.3 1-7 1.8-1.5.6-3.7 1.2-4.7 1.2-4.3 0-5.3 2.2-5.8 12.1A58 58 0 0 1 216 303c-2.3 6.4.7 14.7 7.8 22.2a42.5 42.5 0 0 1 11 15.5c0 .6.6 2.3 1.3 3.7l1.8 3.5c.2.6 1.3 1 2.8 1h2.4v-5a18 18 0 0 0-1.5-8.2c-1.5-3.7-1.6-9.6-.1-10.5 1.4-.9 7 1.3 12 4.7a2350.5 2350.5 0 0 0 9.6 6.4c.9.5 2.5 1.2 3.7 1.5 1.2.2 2.7.8 3.4 1.3 1.8 1.3 8.6 1 12.8-.4 1.9-.7 4.4-1.2 5.5-1.2 1 0 3.2-.6 4.7-1.3 1.5-.6 3.4-1.2 4.2-1.2 4 0 7.3-3.1 6.6-6.2-.5-2.3-6-7.8-8.1-8.3-1-.2-2.9-.9-4.3-1.5a26 26 0 0 0-4.9-1.6c-1.2-.2-4-1.4-6-2.5l-6-3.2a77 77 0 0 1-19.7-22l-4.3-6.5c-.6-.9-1.5-2.5-2-3.7-2-4.7-4.2-6-7.8-4.4M432.4 319a19.1 19.1 0 0 0-12.7 23 18 18 0 0 0 33.6 5.5c8.4-14.5-5.9-34-21-28.5m11.7 9.3c4.5 3.6 5.8 8.6 3.5 13.9-4 9.4-15.7 9.7-20.1.4-5.2-10.6 7.6-21.6 16.6-14.3M-3 358c-1 1.1-.5 8.6.9 16.6.5 2.7 1 8.1 1.2 12 .3 4 1 11.3 1.6 16.3.7 5.1 1.4 12 1.6 15.3.5 8.8-.3 8.4 18.4 8.4 19 0 17.7 1.1 18.9-16 .8-11.7.5-11.2 5.8-11.9 7.9-.9 16.2-6.5 17.8-12 .2-1 .9-2.3 1.4-3.1 4-6.4-2.5-20.6-11.4-25-3.3-1.7-54.9-2.2-56.2-.6m378.7 4c-.8.8-1.3 2.4-1.5 6-.3 2.6-.9 7-1.4 9.6-1.6 8.5-1 11.6 3.8 17.5 2.2 2.8 2.6 4.3 1.5 7.3-.3 1-1 4.5-1.5 8-.5 3.3-1.4 7.9-1.9 10a55.7 55.7 0 0 0 .1 21.3c1.5 1.5 4.5 1 6-1 1.4-2 3.2-14.6 4.1-30.3.7-11.6.8-12 5.7-14.7 3.7-2 4.6-5.2 6-20.4 1-9.6.6-11-2.4-10.7l-2.2.2-.5 6.1c-.7 9.3-1 10.3-2.2 10-.9-.1-1-1.2-1-8.8 0-9.2-.2-10.1-2.5-10.1-2.1 0-2.6 1.4-3.3 9.5-.7 7.6-1.3 9.3-2.8 7.7-.7-.7-.8-2.2-.2-8.8.7-9.4-.4-11.9-3.8-8.5m-325 4.1c9.8 5.5 9 20.5-1.2 24-7 2.4-7.7 1.4-6.9-10.5 1-16 1.7-17 8.1-13.5m157.8 2.6a60.2 60.2 0 0 0-32 10 41 41 0 0 1-4.5 2.9c-2.6 1.4-2.6 1.4 1.6 5a55 55 0 0 0 23.5 11 105 105 0 0 0 32.9-.3c2-.7 4-1.3 4.5-1.3 4.7 0 19.9-9.6 19.9-12.5 0-2.5-11.9-10-18-11.3-1.1-.2-2.8-.8-3.8-1.3a127 127 0 0 0-20.7-2.5l-3.4.3m-60.9 4c-.5 1.8-.5 21 0 22.3.5 1.3 2.9 1.2 4.7-.3.9-.6 2.2-1.5 3-1.8.8-.3 3.4-1.9 5.8-3.4s4.6-2.7 5-2.7c1.6-.1 3-4 1.8-4.7a171.1 171.1 0 0 0-15.6-9.4c-3-1.7-4.2-1.7-4.7 0M241 381c1 1.9 1 1.9-.5 3.8-2.5 3-5.8 1.5-5.8-2.5 0-3.7 4.4-4.6 6.3-1.3m62.6.6c-1.9.4-8.8 3-11.7 4.6-1.1.6-2.4 1.1-2.8 1.1-1.8 0-3.8 3.5-4.5 8-1.4 7.7-5.2 10.4-13.6 9.7l-4-.4-2.5 2.7c-8.9 9.6-11.2 15.7-10.1 27.1 1.9 20.8 1.6 20.2 9.1 19.7 10.4-.7 10.8-1 10.2-8.8l-.4-5.2 2 1.6c1.3.9 3 2.7 4 4a1669 1669 0 0 0 18.2 22.5l4.2 5.2 8.5 10.3c10.6 13.3 10.2 13 16.5 8.2 9.5-7.4 32.8-26.6 34.3-28.3 2.5-2.6 2.4-2.7-4.5-11.1a420 420 0 0 1-12.6-15.8 2189.3 2189.3 0 0 0-11.4-14c-10.7-13-13.6-16.9-13.2-17.5.6-1 3.8-.7 6.3.3 4.2 1.8 6.2.4 7.6-5.6.4-1.6 1.2-3.8 1.6-4.7 2-4 .2-5.8-8-8.2-1.8-.4-5.5-1.7-8.4-2.7-7.8-3-10.6-3.4-14.8-2.7M96.8 406.2a11 11 0 0 0-1.6 4.4c-.2 1.6-1 4.8-1.5 7.2a71 71 0 0 0-1.6 7.4c-.2 1.7-.8 4.3-1.2 5.9a61 61 0 0 0-1.5 7c-.4 2.4-1 5.6-1.6 7.1l-1.5 7.1c-.3 2.4-1 5.5-1.5 6.8-.4 1.4-1 4-1.2 5.8l-1.6 8c-4.5 17.4-3.7 19.7 7.5 21.3 2.6.4 11.3 2.2 21.4 4.6 2.9.6 7 1.5 9.2 1.8 2.2.4 5.2 1 6.5 1.5 1.4.5 3.3 1 4.4 1 1 0 4.5.7 7.7 1.5s7.2 1.6 9 1.8c1.7.2 4.3.8 5.6 1.3 1.4.5 4.5 1.1 7 1.5 2.5.3 5.6 1 7 1.5 1.3.5 4 1 6 1.3 2 .2 5 .8 6.7 1.3 1.7.5 5.3 1.3 8 1.8l8.5 1.8c8.3 2.4 10.4 1 12-7.2a224.1 224.1 0 0 1 3.3-15.5 379 379 0 0 1 3.8-18.2c.6-2.5 1.6-6.8 2-9.5 2.1-10.4 2.4-11.8 3.3-15.4 4.8-20.4 4.4-21.3-8.3-23.4-3-.5-6.1-1.2-7.1-1.5-1-.4-3.7-1-6.2-1.3-2.4-.4-5.6-1-7.1-1.5a52 52 0 0 0-7.1-1.5c-2.4-.4-5.5-1-6.9-1.5-1.4-.5-4.1-1.1-6.1-1.3-2-.3-4.9-.9-6.4-1.3-1.6-.5-5.2-1.3-8-1.8-2.9-.5-6.7-1.3-8.6-1.9a257 257 0 0 1-24.6-5.3l-8-1.5c-1.6-.2-4.6-1-6.7-1.6-6-1.7-11.4-1.5-13 .5m15.7 8.5c3.3.9 6.7 1.6 7.6 1.6 1 0 3.4.5 5.4 1.1 2 .7 5.2 1.4 7.2 1.6 2 .3 5 .9 6.7 1.4 1.7.5 5.2 1.3 7.8 1.7 2.5.4 6.5 1.2 8.7 1.8 8.6 2 15.2 3.5 17.8 3.8 10.8 1.5 13.8 5.2 10 12.5-.4.6-1 3.2-1.3 5.8-.4 2.6-1.3 6.6-2 9-.6 2.2-1.1 4.8-1.1 5.6 0 .9-.5 3.1-1 5-.5 1.8-1.3 5.5-1.8 8.3-.5 2.7-1.1 5.7-1.5 6.6-.4 1-1 3.7-1.3 6.2-1 5.9-3.5 15.3-4.4 15.8-.4.3-2.4 0-4.5-.6s-5.3-1.3-7.2-1.6c-1.8-.2-5-.9-7.3-1.5-2.2-.6-5.6-1.4-7.7-1.7-2-.3-5.5-1-7.7-1.6l-7.4-1.6-8.3-1.6-9.5-2.1a248 248 0 0 0-9.3-2 38.4 38.4 0 0 1-12.2-3.5c-.5-.7.4-6.1 2.2-13.6l1.7-8.3c.4-2.4 1.2-6.3 1.8-8.7 1.4-6 2.8-12.6 4-19l2.1-9.6c.6-2.2 1.2-5.3 1.4-7 .7-5.6 2.2-6 11.1-3.8m93.6 27.1c4.7 5.3 1.7 14.2-5.2 15.4-5 .9-8.5-1-10.5-5.6-4.2-9.3 8.9-17.4 15.7-9.8m-10.7 2.3c-3.8 4.2-1.4 9.7 4.2 9.7 2 0 4.9-3.2 4.9-5.5 0-4.5-6.2-7.3-9-4.2m4.3 18c3.4 3 4.9 12.4 2.1 14.2l-2.2 1.7c-3.9 3.2-11 1.7-13.8-2.8-1.5-2.3-.5-9.4 1.5-11.3 5-4.7 8.5-5.2 12.4-1.9m-9.5 4.7c-4.4 4.4 1.4 11.6 6.7 8.2 2.3-1.4 2.6-2 2.6-4.9 0-4.9-5.7-7-9.3-3.3m-5 16.2c.9 2.3-.2 5.5-2 5.3-1.5-.2-2-2.4-1-5 .8-2 2-2.1 3-.3m8.1 1.7c1.3 2.4.8 4-1.5 4.9-2.7 1-3.2.6-3.8-2.1-.6-3.6 3.6-5.9 5.3-2.8m6 3.3c.3 3.1-.9 4.3-2.8 3-1.5-.8-1.5-2 0-4.3 1.6-2.7 2.6-2.2 2.9 1.3"/>
    <path fill="#4b823e" fill-rule="evenodd" stroke="null" d="M795 19c-6 6-6.4 6.8-6.3 11.5v3.3l-6.7 6.8c-10.3 10.2-13 13.9-11.7 16.3 1.6 2.8 7.2-1.7 15.4-12.4 5.6-7.3 5.6-7.2 8.6-7.2 5 0 4.9 0 11.8-8 3.4-4.2 3.9-5 3.8-6-.2-2.5-1.4-2-5.4 2.2-3.4 3.7-5.1 4.7-5.1 3.1 0-.4 3-3.9 5.9-7 1.2-1.2 1.4-3 .5-3.9-.8-.6-2 0-4 2.2l-3.3 3.5c-1.7 1.9-2.6 2.3-3.1 1.5-.3-.4 1.4-2.6 4.8-6.2 2.3-2.5 2.7-3.2 2.2-4.2-1-1.7-2-1-7.4 4.4m-75 7.3c-.2.3-.3 2-.3 4 0 3.2 0 3.4-1.4 5.6-3 4.6-4.6 5.2-12.8 5-3.2 0-6 0-6.2.2-.8.5-.7 6.3 0 7.3.4.5.8 1.5 1 2.3a24.8 24.8 0 0 0 4.4 7c1.6 1.8 3.1 4 3.7 5.4 1.2 2.5 3.5 3 5.9 1.1.5-.4 1.3-.8 1.6-.8.4 0 1.2-.3 2-.8.6-.4 1.9-1 2.7-1.2.9-.3 2.2-1 3-1.5l1.2-1.1-.8-1.7c-1.1-2.1-1-2.5 1.6-3.8a7 7 0 0 1 6.4-.5c2 .8 4 .8 5.5 0 .6-.2 1.9-.6 2.8-.7 1-.2 2.4-.7 3-1 .7-.5 1.8-1 2.4-1 .7-.2 1.6-.7 2.2-1.1.5-.4 1.4-.8 1.8-.8.5 0 1.3-.4 1.9-.8.5-.4 1.2-.8 1.5-.8 2.7 0 16.9-8.3 16.9-9.8 0-5.8-9.5-9.4-17.1-6.5a25.4 25.4 0 0 1-13.3.1c-.8-.4-2.7-.8-4.3-1-1.6-.2-3.4-.6-4.1-1-.7-.3-2-.7-3.1-.8-1-.2-2.8-.6-3.8-1-2.2-1-3.7-1-4.3-.3m142.2-.2c-4.5.4-7.8 2-12.7 6.6-1.4 1.4-4 3.8-5.9 5.3-4.7 4.1-4.7 4.5 0 9.2 4.8 5 4.5 5 8.1 1.8 4.5-4 5.1-2.4 2.4 6-.5 1.8-1 3.3-2.5 9.6a436.4 436.4 0 0 1-3.8 14 98.2 98.2 0 0 1-2.4 9l-1.7 6.3c-1.3 5.3-1.2 5.5 5.5 7.1a267.1 267.1 0 0 1 14 3.8l4.4 1.1a190.5 190.5 0 0 0 14.2 3.7c.7.2 1 0 1.4-.6.6-1.3 2.4-6.7 2.4-7.6 0-.5.3-1.5.6-2.3l1.2-4 1-4.5c.8-2.1 1.7-5.9 2.7-10a24 24 0 0 1 1.2-3.8l.7-2.8c.1-1 .6-2.8 1-3.9.4-1 .8-2.2.8-2.6a2032.9 2032.9 0 0 0 2.3-8.9c.5-2 2.5.5 3.4 4.4.8 3.3 1.4 3.3 10.4.7 3.3-1 3.7-2.4 2-6.7-1-2.1-2.8-7.7-3.1-9.4-.5-2-2.5-6-4-7.7-2-2.4-4-3.6-11.5-7.6l-2-1-3.2 1.7c-5.9 3.1-10.6 1.8-13.4-3.7-1.5-3-5.2-3.8-13.5-3.2m-53.8 28.6l-1.3 3.1a47 47 0 0 0 .9 22.4c0 2.6 6.1 11.8 10 14.9 1 .9 2 1.9 2 2.2 0 1.1-1 5-1.8 6.5-2 4.7-1.1 7 2.1 6 1-.4 3-1 4.5-1.2 5.6-1 5.6-1.8.2-7.3a50.7 50.7 0 0 1-4.2-4.5l1.1-2.7c3.7-7.6 2.8-20-2-29.7-3.9-7.5-10.2-13-11.5-9.7m-59.2 4.7c-.7.9-1.2 1.7-1.2 2 0 .2-.5.9-1 1.5l-1.6 2.3-2.8 4.5a390 390 0 0 0-4.9 7.6c-.4.7-.5.7-2.6 0-1.2-.4-2.8-.7-3.6-.7-.7 0-2.1-.4-3-.8-3.3-1.5-5.3-1-5.3 1.4 0 1.8 1.1 2.7 4 3 4 .6 4.9 2.7 1.4 3.6l-3.4 1.2c-1.9.8-4.1 1.5-8.2 2.8a172.7 172.7 0 0 0-11 3.8c-11.5 3.6-11.8 3.8-9.2 10.6a92 92 0 0 1 2.8 8.2c.2.2.5 1.3.8 2.4l1 3.2c.4.6.9 2 1.2 3 .6 2.3 1.7 5.2 2.6 7.6.4 1 1 2.6 1.2 3.6.2 1 .6 2 .8 2.2l1 2.6a94 94 0 0 0 1.8 5.6l1.7 5.1c.5 2 2.4 4 3.4 3.5 2-.8 4-.7 4.3.2.6 2 2.4 1.8 10.2-.9 3.4-1.1 4.4-2 4.4-3.9v-1.4l3.3-1.3 3.8-1.3a70.9 70.9 0 0 1 10.3-3.6 172.7 172.7 0 0 0 11-3.8c1-.2 2.4-.7 3.2-1 1.7-.8 4.7-1.9 7.8-2.8l3.9-1.3c2-1 3.3-.9 4 .3.9 1.3 3.6 1.4 6.1.2l3.9-1.3c3-1 4.6-2.3 4.4-3.8-.2-1 0-1.3 2-2.5a8.7 8.7 0 0 0 2.5-1.9c.2-.6-1.4-6.1-2.5-8.3a86.3 86.3 0 0 0-3.8-11c-.8-2.2-1.8-5-2.7-8.2l-1.1-3.2a18 18 0 0 1-1-2.8l-2.7-7.8-2.7-7.8c-1.1-4.2-3-4.3-12.1-1l-5.2 1.8a114 114 0 0 0-11.4 4l-5.4 1.8c-6.6 2.4-7 2-3.6-3.2l1.8-3c.3-.6 1.3-2.2 2.2-3.4.9-1.2 1.6-2.4 1.6-2.6 0-.3.3-.8.8-1.2 1-.9 1.3-2.9.8-4.3-.6-1.7-2.4-1.5-4 .5m63.1 1.4c1.1 1.1 1 2-.4 2.6-2 .7-3.2-1.5-1.7-3 .8-.8 1-.8 2.1.4m-142.5 7.7c-17.2 7.4-12.6 31.3 6 31.3 14.3 0 22-15.4 13.3-26.4a17.8 17.8 0 0 0-19.3-5m110.8 4.3c.5 1 1 2.2 1 2.7 0 .6.4 2 1 3 .5 1.1 1 2.5 1 3 0 .6.3 1.6.7 2.2.4.7.9 2 1 3 .2 1 .7 2.4 1.1 3 .4.7.8 1.6.8 2 0 .5.4 1.8 1 3 .5 1.1 1 2.5 1 3 0 .4.3 1.5.7 2.3.5.8 1 2.1 1 3 .2.8.7 2 1.1 2.8.4.6.8 1.6.8 2.2 0 .5.4 1.8 1 3 .5 1.1 1 3 1.2 4.3l.3 2.2-2.5 1.2c-1.3.7-2.8 1.2-3.3 1.2s-1.8.5-3 1c-1 .6-2.4 1-2.9 1s-1.5.4-2.2.8c-.7.4-2 .9-2.8 1-1 .2-2 .6-2.5.9-.5.3-1.8.7-3 1a13 13 0 0 0-3.3 1.2c-.7.4-1.7.7-2.2.7-.6 0-1.7.4-2.5.8s-2.1.9-3 1c-.8.2-2 .6-2.7 1-.7.4-2 .8-2.8 1-.8.1-2.3.6-3.2 1-2.1 1-5 2-7.8 2.7a15 15 0 0 0-3 1.1c-.5.3-1.6.7-2.4.8-1 .2-2.3.7-3 1-.8.5-1.8.8-2.2.8-.5 0-1.8.5-3 1-1.1.6-2.5 1-3 1-.4 0-1.7.5-2.8 1-1.1.6-2.5 1-3 1s-1.5.4-2.2.8c-3.7 2.3-6.5 1-7.2-3.4-.2-.9-.6-2.1-1-2.8-.5-.7-.8-1.7-.8-2.2 0-.6-.5-1.9-1-3-.6-1-1-2.4-1-2.9s-.4-1.6-.8-2.4c-.4-.8-.9-2.2-1-3.1a10 10 0 0 0-1-2.8c-.5-.6-.8-1.6-.8-2.2 0-.5-.5-1.9-1-3-.6-1-1-2.4-1-3 0-.5-.4-1.6-.8-2.3-.4-.7-1-2-1-2.8l-1-2.9c-1.8-3.4-1.8-7.2 0-7.2.3 0 1.5-.5 2.6-1 1-.5 2.4-1 3-1 .5 0 1.5-.3 2.2-.7.6-.4 1.9-.9 2.8-1 .8-.2 2.2-.7 3-1.1a7 7 0 0 1 2.3-.8c.3 0 1.6-.4 2.8-1 1.2-.5 2.6-1 3-1 .6 0 1.9-.4 3-1 1-.5 2.2-1 2.8-1 .5 0 1.5-.3 2.2-.7.7-.5 2-1 2.8-1 .9-.2 2.2-.7 3-1.1.8-.4 2-.8 2.5-.8s1.9-.5 3-1c1-.5 2.4-1 3-1 .4 0 1.4-.3 2.1-.8.7-.4 2-.8 2.9-1a10 10 0 0 0 2.8-1c.7-.4 1.7-.8 2.2-.8.5 0 2-.4 3.1-1 1.2-.5 2.5-1 3-1s1.5-.3 2.3-.8c.8-.4 2.2-.9 3-1 .9-.2 2.1-.6 2.8-1a10 10 0 0 1 2.7-1c.9-.1 2.2-.6 3-1 2.5-1.3 3.9-1 5 1M679 74a9.8 9.8 0 0 1-3 19.3 9.8 9.8 0 0 1-3-19.3c3.1-1 2.9-1 6 0m90 6c-5.9 1.5-10.1 11.4-6.9 16.1 6 8.5 15.5 8.5 21 0 .8-1.1 1.1-7.5.5-9.7-1.3-4.6-8.7-7.8-14.5-6.4m6 3.8c3.7 1 5.8 4.6 5.1 8.6-1 5.2-6.7 8-11.1 5.4-8.4-4.9-3.4-16.5 6-14m-24.4.5c-1 .3-2.7 1-4 1.3l-3.4 1.2a92.1 92.1 0 0 0-10.4 3.6 158 158 0 0 1-8.8 3 160.8 160.8 0 0 0-10.4 3.6l-3 1.1-2.7.9c-3.3.6-3.4 2.6-.7 9.4l1 3.2c.1.8.5 1.9.8 2.4l1.1 3 2.7 7.8c1 2.7 2 5.5 2.8 8.2.9 3 2.2 5.8 3 6 .8.4 5.3-.5 6.7-1.3A83.1 83.1 0 0 0 736 134c1-.3 2.6-.9 3.6-1.1 1-.3 2-.6 2.2-.8.2-.2 1.4-.6 2.6-1a96.9 96.9 0 0 0 10.8-3.6l10.4-3.6c3-1.1 3.6-2.8 2-6.3-.8-1.7-1.4-3.4-2.8-8l-2-5.9-1.8-5.4L760 95c-.9-2-2.6-6.8-2.9-8-.6-3-3-3.9-6.4-2.5m2 3.6c.7.4 2.6 4.4 2.6 5.3 0 .4.4 1.7 1 2.9.5 1.2 1 2.5 1 3 0 .6.3 1.6.7 2.3.5.7 1 2 1 2.8.2.9.6 2 1 2.5l1 3c.2 1.2.6 2.4.9 2.7.3.3.7 1.6 1 3a7 7 0 0 0 .8 2.4c1.4.9-.7 3.3-3 3.7-1 .1-2.2.5-2.8 1l-2.8 1c-1 .1-2.3.6-3 1-.8.4-1.8.7-2.2.7-.5 0-1.8.5-3 1-1.1.6-2.5 1-3 1-.4 0-1.7.5-2.8 1-1.1.6-2.5 1-3 1s-1.5.4-2.2.8c-.7.4-2 .8-2.8 1-1 .1-2 .5-2.5.8-.5.4-1.8.8-2.9 1l-3.5 1.2c-2.4 1.3-4.5.8-4.5-.9 0-.5-.5-1.8-1-3-.6-1.2-1-2.5-1-2.9 0-.4-.5-1.7-1-2.8-.6-1.2-1-2.6-1-3.1 0-.6-.4-1.6-.8-2.2-.4-.7-.9-2-1-2.9-.2-.9-.6-2-.9-2.5-.3-.5-.7-1.8-1-3a7.4 7.4 0 0 0-1-2.7c-2.2-2.5-.8-6.5 2.4-7 1-.1 2.2-.6 2.9-1 .6-.4 2-.8 3-1 1-.1 2.3-.6 3-1 .6-.4 1.6-.8 2.2-.8.5 0 1.9-.5 3-1 1-.5 2.4-1 3-1 .4 0 1.4-.3 2.1-.7.7-.5 2-1 2.8-1 1-.2 2.3-.7 3-1 .8-.5 2.2-.9 3-1 .8-.2 2.1-.7 2.8-1.1.7-.4 1.7-.8 2.3-.8.5 0 1.5-.3 2.2-.6a15 15 0 0 1 3.4-1.3s.4 0 .6.2m26 19c-3 .8-4 2.4-2.7 4l.8.9 2.1-.8c2.8-1 3.2-1.2 3.2-2.6 0-1.8-1-2.3-3.3-1.6m143.8 4.2c-5 3.5-3.7 18.2 1.9 21.6 2.5 1.5 3.4 3.2 4 6.8 2 15.5 4 21.4 7 21.4 2.6 0 1.8-9.1-1.9-20.3-1.4-4.2-1.4-6.8-.2-8.6 5.7-8.3-3.4-26-10.8-20.9m-142.8 3.4c-1.4.6-2.3 2.2-1.7 3.2 1 1.9 6.4.3 6.7-2 .2-1.5-2.6-2.2-5-1.2M656 118.1c-1.2.1-2.7.5-3.2.9-.6.3-1.6.8-2.3.9-2.8.6-2.7.1-2.9 17.8-.1 19.7-.2 18.8 2.6 20.4a10 10 0 0 0 2.9 1.2l3.7.8c3.5 1 8.2 1 11 .2 1-.3 2.9-.7 4-.8 2-.3 5.6-2.3 6-3.3l.4-2c.3-1.4 1-1.9 3.5-2.3 1.6-.2 5.5-3.7 5.5-5 0-.3.3-1.3.8-2.2 1.3-2.4 1.5-8 .5-10.3-.5-1-1-2.1-1.1-2.7-.8-2.8-4-5.7-6.8-6.2-2-.3-2.6-.8-2.6-2.1 0-4.3-10.5-6.8-22-5.3m16.3 3c4.5 1.7 3.7 3.4-2 4.7-8.4 1.8-20 0-20-3 0-2.8 15.7-3.9 22-1.6m147 .2c-4.4 1.8-7 6-7 11.2 0 3.2-.6 4.3-2.2 4.3l-2.3.8c-.9.4-2.3.9-3 1-1.7.3-5.2 2.2-5.2 2.7 0 .7 1.6 6 2 6.5a75.3 75.3 0 0 0 3.7 10.7l1 3.5c.3 1 .7 2 .9 2.2l1 2.6c2.6 9.4 3.8 11.5 6.1 10.6.8-.4 2.3-.9 3.3-1.2a98 98 0 0 0 7.6-2.6c1.9-.8 4.2-1.6 8.2-2.8a172.7 172.7 0 0 0 11-3.8c4.5-1.4 7-2.3 8.6-3 .8-.4 2.2-.8 3-1 4-.7 5.6-3 4.2-5.8a21 21 0 0 1-1.2-3.1l-1.8-5.3-2-5.8a242.8 242.8 0 0 0-5.6-16.5c-.8-2.8-2.3-2.9-9.3 0-4.3 1.7-5 1.5-7.8-1.6-3.8-4.2-8.4-5.5-13.1-3.6m64.4 4c-1 .9-1.8 1.8-1.8 2.1 0 .3-.5 1.3-1 2.3-.5 1-1.1 2.6-1.3 3.4-.1.8-.5 2-.9 2.5-.4.6-.7 2.4-.9 5.4-.1 2.4-.5 5.4-1 6.7-.3 1.2-.7 5-1 8.2-.1 3.2-.6 6.8-.9 8-.3 1.1-.7 4.3-.8 7.2-.2 2.8-.6 6.1-.9 7.3a64 64 0 0 0-1 8.4c-.1 3.4-.6 7.1-1 8.2-1.8 6-1 12.7 1.6 13.2.7.2 2 .7 3 1.3 1 .5 2.2 1 2.7 1a5 5 0 0 1 2 .7c.6.4 1.9.8 2.8 1 .9.1 1.8.5 2.2.8.3.3 1.4.8 2.5 1 1 .2 2.4.8 3.2 1.2.7.5 1.6.8 2 .8 1.3 0 1.6 1 .7 2.7l-1 2.7c-1.1 5-3.2 6.8-6 5-.7-.4-2-.9-2.8-1a10 10 0 0 1-2.8-1 5 5 0 0 0-2-.8c-.5 0-1.7-.4-2.7-1-1-.5-2.3-1-2.8-1s-1.5-.3-2.1-.8c-3-2-6.8-.6-7.3 2.5s1.3 4.4 10.3 7.4l3.2 1.3c.7.4 2 .8 2.8 1 .7.2 2 .6 2.6 1 .7.5 1.7.8 2.1.8.5 0 1.7.5 2.8 1 1 .6 2.2 1 2.7 1 .4 0 1.3.4 2 .8s2 .9 2.8 1c.9.2 2.1.6 2.8 1 .7.5 1.6.8 2 .8.4 0 1.6.5 2.7 1 1 .6 2.2 1 2.6 1 .5 0 1.7.5 2.7 1 1 .6 2.3 1 2.7 1 .5 0 1.4.4 2 .8.7.5 1.6.8 2 .8l3.2 1c4.4 1.8 6.8.7 6.8-3.2 0-2.4-2.3-4.4-5.8-5.2a8 8 0 0 1-2.2-.8c-.5-.3-1.7-.8-2.8-1-1-.3-2.2-.7-2.6-1-.3-.3-1.2-.7-2-.8-.7-.2-2.2-.7-3.3-1.3-1.1-.5-2.3-.9-2.7-.9-1.5 0-1.8-2.5-.5-4 .3-.3.7-1.4 1-2.5 1-4.6 3-5.7 6.9-3.7 1 .6 2.2 1 2.7 1s1.4.4 2.1.8c.7.4 1.9.9 2.7 1 .7.2 2 .6 2.6 1 .7.5 1.6.8 2 .8.4 0 1.7.5 2.8 1 3.4 1.6 7 1.6 8.4 0a113.3 113.3 0 0 0 10.2-14.2c1.4-1.8-.7-5.6-3.1-5.6-.4 0-1.6-.5-2.7-1a10 10 0 0 0-2.8-1c-.4 0-1.3-.3-2-.7-.7-.5-2-1-2.8-1-1-.2-2-.6-2.5-1l-3-1a8.2 8.2 0 0 1-2.8-1c-.3-.2-1.5-.6-2.6-.7a10 10 0 0 1-3.1-1c-.7-.4-2.1-.8-3.2-1-1.1-.2-2.7-.6-3.4-1-.8-.5-2-.8-2.5-.8-.7 0-2.2-.4-3.5-1-1.3-.5-3-1-3.5-1a7 7 0 0 1-2.7-.8c-.8-.4-2.3-1-3.3-1a6 6 0 0 1-3-1.4l-1.2-1 .2-4.4c.3-6.9 1.5-9 4.3-7.4.8.4 2 .9 2.7 1 .8.2 2 .6 2.6 1 .7.5 1.6.8 2 .8.5 0 1.8.5 2.9 1 1 .6 2.3 1 2.7 1 .4 0 1.3.4 2 .8s2 .9 2.9 1c.8.2 2 .7 2.5 1 .5.5 1.4.8 2 .8a9 9 0 0 1 2.8 1c3.3 1.7 8.8 1.7 10.5 0 3.6-3.6.1-9-6.5-10.4-.7-.2-1.6-.5-2-.8-.3-.3-1.4-.7-2.3-1-1-.2-2.5-.7-3.4-1.2-.9-.4-2-.8-2.4-.8-.4 0-1.3-.3-2-.7a10 10 0 0 0-2.6-1c-.8-.2-2-.7-2.6-1-.7-.5-2-1-3-1-.8-.2-1.8-.6-2-1-.3-.2-1.2-.6-2-.7-.8-.2-2.4-.8-3.4-1.4l-2-1-.1-3.5c-.1-2 .1-5.1.5-7.2 1.1-6.5 1.3-8.8 1.4-18l.2-8.9-1.4-1.7c-.8-1-1.9-1.8-2.4-2-.6 0-1.7-.5-2.4-1-2.5-1.3-5-1-7 1m-57.1-.3c4.4 2.2 4.8 4.7 1 5.7l-3.7 1.3c-6.6 2.7-8 2.6-8-.3 0-5.4 6-9.1 10.7-6.7m-144.2 5.2c5.1 4.7 3.5 18.2-2.2 18.2-2.2 0-2.3-.5-2.3-9.6 0-7 0-8.4.6-9 1-.9 2.7-.7 4 .4m161.7 2.5c.6 1 2 4.5 3.5 9.3a159.3 159.3 0 0 1 4.9 14.4c.4 1.4-2 2.7-9.5 5-2.4.7-5.4 1.8-7.6 2.6-2.1.9-4.8 1.8-8.2 2.8l-3.8 1.3c-5 2.2-7.2 2.3-7.8.5l-1-3c-.9-2-1.8-4.8-2.8-8.2a63 63 0 0 1-3.7-10.8c-.6-2.5.1-3.5 3.1-4.3a83 83 0 0 0 5.8-1.9l5.2-1.8c3.9-1.2 7-2.3 8.2-2.8 1.2-.6 5.1-1.9 8.2-2.7l2.6-1c1.2-.7 2.1-.6 2.9.6m111.7 30c-17.3 6.7-12.8 31.7 5.8 31.7 15.8 0 22.8-20.7 10-29.6-4.7-3.2-10.8-4-15.8-2.1m9.1 6c6 1.7 8.7 8.6 5.7 14-5.3 9.1-19.2 5.6-19.2-4.9 0-6.8 6.5-11.3 13.5-9.2m-254.5.2c-9.3.9-16.2 7-13.1 11.5a274.7 274.7 0 0 1 5 7.5c1.7 2.3 1.7 2.9.7 6-.5 1.3-.8 2.8-.8 3.3s-.4 1.8-.8 3c-.7 2-1 3.3-2.7 10.1l-1.4 4.7-.7 3a57.3 57.3 0 0 0-2 7.2c-1.6 6.6-2.1 8.4-2.9 10.5-1.5 4.4-1.5 8 0 8.8 2.2 1.1 4.1-1 4.9-5.3.2-1.3.7-3 1-3.5.2-.5.6-1.8.7-2.8l1-4c.8-2 1-3.2 2.9-10.4 1-4.1 1.9-7.3 2.8-10.4.4-1.4 1-3.5 1.2-4.7.2-1.2.5-2.4.8-2.9.2-.4.6-1.7.8-2.9 1-4.2.5-4.3 12.6 1.5l6.8 3.2c5.1 2.4 5.4 3 4.2 6.8-.9 2.7-1.7 5.7-2.8 10.2-1.1 4.4-2 7.5-2.8 10.2-1.8 5.4-1.2 9 1.3 9 1.2 0 3-2.6 3.6-5.2l2.7-10.2c1-3.9 1.9-7 2.7-10.6 1.3-5.5 2.2-6.4 5.5-5 .8.3 2.5.8 3.9 1 1.3.3 2.9.7 3.5 1 .5.3 1.8.6 2.8.8 5.4.8 6 1.7 4.2 7.3-.9 3-1.1 3.9-2.4 9.1l-1.4 5c-1 3.5-2.4 8.5-3 11.2l-2.6 9.6c-.4 1.2-.9 3-1 4l-1 3.7c-1.6 4-1 6.7 1.5 6.7 2 0 2.8-.9 3.5-3.9.6-2.6 1.5-6 2.6-9.7l2.4-9.2 1.4-5 1-3.9.7-2.8c.5-1.1 1-3.1 1.2-4.4.3-1.3.6-2.6.9-3l1-3.6 1.4-5.3 1-2.6h2.4c4.3 0 20.3 1 21.6 1.4 1.5.3 1.7 1.3.6 4.8l-1.2 4.3a1305.3 1305.3 0 0 1-5.2 19.7 10236.5 10236.5 0 0 1-2.9 10.3c-1.3 3.9-.6 6.5 2 6.5 1.1 0 2.9-1.7 2.9-2.7l.6-2.5c.4-1 1-3.1 1.4-4.8 1.6-6.4 2-8.3 2.8-10.4l1-4c.1-1 .4-2.1.6-2.5l1.2-4c3.2-14.2 4.2-16 9-17 5.2-1.3 8.6-5.2 8-9.2-.7-3.5-7.5-10.8-12.8-13.8l-3-1.9c-1.9-1.2-10-5.3-13.2-6.7-4.8-2-6-2.5-7.5-2.9-1-.2-1.8-.6-2-.8 0-.2-1.2-.5-2.4-.8-1.3-.3-2.8-.7-3.4-1a21 21 0 0 0-3.6-1.2c-3-.7-6.6-1.5-10.7-2.6a48 48 0 0 0-5.2-1 134.6 134.6 0 0 0-33.8-1.8m-47.2 9.6c-2 .3-5.5 2.5-6.4 3.8-1 1.4-2.4 2-3.6 1.3-4.2-2.2-10-5-10.5-5-.6 0-2.3 2.2-2.7 3.5-.2.6-.5 1.3-.8 1.6a103.6 103.6 0 0 1-13.8 26.2c-.7.8-1 3.3-.4 3.7a5260.2 5260.2 0 0 1 41.5 21.8c3.6 1.8 4 1.6 6.7-3.8a1460.3 1460.3 0 0 0 9.2-17.7c1-2 2.5-5 3.4-6.5 3-5.4 2.6-5.9-6.7-10.2-3-1.5-3.5-2.3-2.7-5.2 2-7.8-5-15-13.2-13.5m6.7 5c2.9 2.2 4.2 7.1 2.3 8.8-.8.7-1 .6-5-1.4l-6-3c-2.6-1.4-2.6-2.8 0-4.5 2.8-1.9 6.1-1.8 8.7 0m-17.3 6.3l14.2 7.4c14.5 7.5 13.5 6.5 11.2 10.6l-4 7.8c-7.8 15-6.2 14-14.2 9.8-8.8-4.5-20.6-10.6-24.8-12.9-2.7-1.4-3.4.3 6.3-18.5 1.6-3 3.4-6 3.9-6.5l1-.8 1.9.8 4.5 2.3m176.4 15.9l-4 1c-1.5.2-3.5.7-4.5 1.1-1 .5-2.4.8-3.1.8-2.8 0-3.5 1.5-3.8 7.9-.1 3.3-.5 6.3-.8 7.3-1.5 4.2.4 9.6 5 14.4a27.6 27.6 0 0 1 7.2 10.1c0 .4.4 1.5.8 2.4l1.2 2.3c.2.4.8.6 1.8.6h1.6v-3.2c0-2.5-.2-3.7-1-5.4-1-2.3-1-6.2 0-6.8.8-.5 4.5.9 7.8 3a1527 1527 0 0 0 6.2 4.2c.5.4 1.6.8 2.4 1l2.2.9c1.1.8 5.6.7 8.3-.3 1.2-.4 2.8-.8 3.6-.8.7 0 2-.4 3-.8s2.2-.8 2.8-.8c2.6 0 4.7-2 4.3-4-.4-1.5-4-5.1-5.3-5.4-.6-.1-1.9-.6-2.8-1a17 17 0 0 0-3.2-1c-.8-.2-2.6-1-4-1.6-1.2-.8-3-1.7-3.8-2.1a50 50 0 0 1-12.8-14.3l-2.8-4.2-1.3-2.4c-1.3-3.1-2.7-4-5-3m124.4 28.6a12.4 12.4 0 0 0-8.2 15 11.7 11.7 0 0 0 21.8 3.5c5.5-9.4-3.8-22-13.6-18.5m7.5 6c3 2.4 3.8 5.6 2.3 9-2.6 6.2-10.2 6.4-13 .4-3.4-7 4.9-14 10.7-9.4m-290.3 19.4c-.6.7-.4 5.6.5 10.8l.9 7.8c.1 2.5.6 7.3 1 10.6s.9 7.8 1 10c.4 5.7-.2 5.4 12 5.4s11.4.7 12.2-10.4c.5-7.6.4-7.3 3.8-7.7 5.1-.6 10.5-4.3 11.6-7.9.1-.5.5-1.4.9-2 2.6-4.1-1.6-13.4-7.4-16.2a214 214 0 0 0-36.5-.4m246 2.6c-.6.5-.8 1.6-1 3.9-.2 1.7-.5 4.5-.9 6.3-1 5.5-.6 7.5 2.5 11.3 1.4 1.9 1.6 2.8 1 4.8-.2.6-.7 3-1 5.1l-1.2 6.6c-.9 3.8-.8 13 0 13.8 1 1 3 .6 3.9-.6 1-1.3 2-9.6 2.7-19.8.4-7.5.5-7.7 3.6-9.5 2.5-1.3 3-3.4 4-13.2.6-6.3.4-7.2-1.6-7l-1.4.1-.3 4c-.5 6-.7 6.7-1.5 6.5-.6 0-.6-.8-.6-5.7 0-6-.2-6.6-1.6-6.6-1.4 0-1.7 1-2.2 6.2-.4 5-.8 6-1.8 5-.5-.5-.5-1.4-.2-5.7.5-6.2-.2-7.7-2.4-5.5m-211.1 2.6c6.3 3.6 5.8 13.3-.8 15.6-4.6 1.5-5 1-4.5-6.8.7-10.4 1.1-11.1 5.3-8.8m102.5 1.7a39 39 0 0 0-23.7 8.4c-1.7.9-1.7 1 1 3.3a35.7 35.7 0 0 0 15.3 7.1c3 1.1 18.2 1 21.3-.2 1.3-.5 2.7-.9 3-.9 3 0 12.9-6.2 12.9-8 0-1.7-7.7-6.5-11.7-7.4-.7-.2-1.8-.5-2.5-.9-1-.5-11.7-1.8-13.4-1.6l-2.2.2m-39.6 2.6c-.3 1.2-.3 13.7 0 14.5.3.9 1.9.8 3-.2l2-1.2 3.8-2.2c1.5-1 3-1.8 3.3-1.8 1 0 1.9-2.5 1-3l-2-1.2a111.2 111.2 0 0 0-8-4.9c-2-1-2.8-1-3 0m60.6 5.4c.7 1.2.7 1.2-.4 2.5-1.5 1.9-3.7 1-3.7-1.6 0-2.4 2.8-3 4-1m40.8.5a43.7 43.7 0 0 0-9.5 3.7c-1.1 0-2.4 2.3-3 5.1-.8 5-3.3 6.9-8.7 6.4l-2.6-.3-1.6 1.8c-5.8 6.2-7.3 10.2-6.6 17.6 1.2 13.5 1 13.1 5.9 12.8 6.8-.5 7-.7 6.6-5.8l-.3-3.3 1.4 1c.8.6 2 1.7 2.6 2.6A1084.2 1084.2 0 0 0 866 331l2.7 3.4c1 1 3.4 4 5.5 6.7 7 8.6 6.7 8.5 10.7 5.3 6.2-4.8 21.3-17.2 22.4-18.3 1.5-1.7 1.5-1.8-3-7.3a272.9 272.9 0 0 1-8.2-10.2l-2-2.4-5.4-6.7c-7-8.5-8.8-11-8.5-11.4.3-.6 2.4-.5 4 .2 2.8 1.2 4 .2 5-3.6.3-1.1.7-2.5 1-3 1.3-2.7.2-3.9-5.2-5.4l-5.4-1.8c-5.1-1.9-7-2.2-9.6-1.7m-134.4 16c-.4.5-1 1.8-1 2.8l-1 4.7c-.5 1.6-.9 3.7-1 4.8-.2 1.1-.5 2.8-.9 3.8l-1 4.6c-.2 1.6-.6 3.6-1 4.6-.2 1-.7 3-.9 4.6-.2 1.6-.7 3.6-1 4.5-.3.8-.7 2.5-.8 3.7-.1 1.2-.6 3.6-1 5.2-3 11.3-2.4 12.8 4.9 13.8l13.9 3 6 1.2c1.4.2 3.3.7 4.2 1 .8.3 2.1.6 2.8.6.7 0 3 .4 5 1l5.8 1.2c1.2.1 2.9.5 3.7.8l4.6 1c1.6.2 3.6.6 4.5 1l4 .8c1.2.2 3.1.5 4.2.9l5.3 1.1 5.5 1.2c5.4 1.5 6.8.7 7.7-4.7a145.6 145.6 0 0 1 2.2-10 246.2 246.2 0 0 1 3.8-18l2.1-10c3.1-13.3 3-14-5.4-15.3-1.9-.3-4-.7-4.6-1-.6-.2-2.4-.6-4-.8-1.5-.2-3.6-.7-4.6-1l-4.6-1a29 29 0 0 1-4.5-1c-.9-.3-2.7-.6-4-.8a27 27 0 0 1-4.2-.8c-1-.3-3.3-.9-5.2-1.2a72 72 0 0 1-8.4-1.8c-.7 0-4.8-.9-13.1-2.8l-5.2-1-4.4-1c-3.8-1.2-7.4-1-8.4.2m10.2 5.6c2.1.6 4.4 1 5 1 .6 0 2.1.3 3.4.8 1.3.4 3.4.8 4.7 1 1.3.2 3.3.5 4.4.9 1 .3 3.3.8 5 1l5.7 1.2c5.6 1.4 9.8 2.3 11.6 2.5 7 1 9 3.4 6.4 8.2-.2.3-.6 2-.8 3.7a56 56 0 0 1-1.3 5.8c-.4 1.5-.7 3.2-.7 3.7 0 .6-.3 2-.6 3.2-.4 1.2-.9 3.7-1.2 5.4a34 34 0 0 1-1 4.3l-.9 4c-.5 3.9-2.2 10-2.8 10.3-.2.2-1.6 0-3-.4-1.3-.4-3.4-.8-4.6-1-1.2-.1-3.3-.6-4.7-1-1.5-.4-3.7-.9-5-1a86 86 0 0 1-9.8-2.2l-5.4-1A167.3 167.3 0 0 1 738 344a25 25 0 0 1-8-2.3c-.3-.4.3-4 1.4-8.8.4-1.4.9-3.8 1.1-5.4l1.2-5.6a315.5 315.5 0 0 0 4-18.6c.4-1.4.7-3.5.9-4.5.4-3.7 1.4-4 7.2-2.5m60.8 17.6c3 3.5 1.1 9.2-3.3 10-3.4.6-5.6-.6-7-3.7-2.6-6 5.9-11.3 10.3-6.3m-7 1.5c-2.4 2.7-.9 6.3 2.8 6.3 1.3 0 3.2-2 3.2-3.6 0-3-4-4.7-6-2.7m2.9 11.6c2.2 2 3.2 8.1 1.4 9.3l-1.5 1.1c-2.5 2-7 1.1-9-1.8-.9-1.5-.2-6.1 1-7.3 3.3-3 5.6-3.4 8-1.3m-6 3c-3 3 .9 7.6 4.3 5.4 1.5-1 1.7-1.3 1.7-3.2 0-3.2-3.7-4.5-6-2.1m-3.4 10.5c.7 1.5 0 3.6-1.2 3.4-1-.1-1.3-1.5-.7-3.2.5-1.3 1.4-1.4 2-.2m5.3 1c.8 1.7.5 2.7-1 3.3-1.8.6-2.1.4-2.5-1.4-.4-2.3 2.4-3.8 3.5-1.8m3.9 2.1c.1 2-.6 2.8-1.9 2-1-.6-1-1.3 0-2.8 1-1.8 1.7-1.5 1.9.8" transform="matrix(1.50818 0 0 1.47101 -119 -26)"/>
    <path fill="#4b823e" fill-rule="evenodd" stroke="null" stroke-width="1.30732" d="M629.8-168.8c-7.8 8-8.4 9-8.2 15v4.4l-8.9 8.9c-13.4 13.3-16.8 18.1-15.2 21.3 2 3.7 9.4-2.3 20.2-16.2 7.3-9.5 7.2-9.4 11.2-9.4 6.4 0 6.3 0 15.3-10.6 4.6-5.4 5.2-6.4 5-7.8-.3-3.2-1.7-2.6-7 3-4.5 4.8-6.7 6.1-6.7 4 0-.5 3.9-5 7.7-9 1.6-1.7 2-4.2.7-5.2-1-.8-2.6 0-5.2 2.8l-4.3 4.6c-2.3 2.5-3.5 3-4.2 2-.3-.5 2-3.5 6.3-8.1 3.1-3.3 3.6-4.2 3-5.5-1.3-2.2-2.7-1.3-9.7 5.8m-98 9.5c-.3.4-.5 2.6-.5 5.1.1 4.3 0 4.5-1.8 7.4-4 6-6 6.8-16.8 6.6-4 0-7.7 0-8 .3-1 .6-1 8.2 0 9.5.5.6 1 2 1.4 3a32.5 32.5 0 0 0 5.7 9.2c2 2.2 4 5.2 4.8 7 1.5 3.2 4.6 3.8 7.6 1.5.8-.6 1.7-1.1 2.2-1.1.5 0 1.6-.5 2.5-1a19 19 0 0 1 3.7-1.6 13 13 0 0 0 3.7-2l1.8-1.5-1.2-2.2c-1.4-2.7-1.2-3.2 2.1-5 3-1.5 5.2-1.7 8.4-.6 2.7 1 5.4 1 7.2.1.8-.4 2.5-.9 3.7-1 1.3-.3 3-.8 4-1.4.8-.5 2.2-1 3-1.3 1-.2 2.2-.8 2.9-1.4.7-.5 1.8-1 2.4-1a5 5 0 0 0 2.4-1c.7-.6 1.6-1 2-1 3.6-.1 22-11 22-13 0-7.5-12.4-12.2-22.3-8.4-4 1.6-14.5 1.7-17.4.2a20 20 0 0 0-5.6-1.4c-2-.2-4.5-.8-5.3-1.2-.9-.5-2.7-1-4.1-1.2-1.4-.1-3.6-.7-5-1.3-2.8-1.1-4.7-1.2-5.5-.3m185.8-.2c-5.9.4-10.1 2.6-16.5 8.6l-7.7 6.9c-6.2 5.4-6.2 5.8-.2 12 6.4 6.6 6 6.5 10.7 2.4 5.9-5.2 6.7-3.1 3.2 7.8-.7 2.3-1.3 4.4-3.4 12.6a570.6 570.6 0 0 1-4.9 18.3 128.3 128.3 0 0 1-3.2 11.7l-2.1 8.3c-1.8 7-1.6 7.2 7.1 9.3a349.2 349.2 0 0 1 18.3 4.9c1.6.3 4.2 1 5.8 1.5a249 249 0 0 0 18.6 4.8c.8.3 1.3 0 1.7-.8 1-1.7 3.2-8.8 3.2-10 0-.5.4-1.9.8-3 .5-1 1.2-3.4 1.5-5.3a74 74 0 0 1 1.5-5.7c.9-2.8 2.2-7.7 3.4-13.1.5-2.2 1.2-4.4 1.5-5 .3-.6.8-2.2 1-3.6.2-1.5.8-3.8 1.3-5.2.6-1.3 1-2.9 1-3.4s.6-3 1.3-5.6l1.8-6c.7-2.5 3.2.7 4.4 5.7 1 4.3 1.9 4.4 13.6 1 4.3-1.2 4.8-3.1 2.5-8.8-1.1-2.8-3.5-10-4-12.3-.6-2.6-3.2-7.7-5.2-10-2.7-3.2-5.2-4.8-15-10l-2.6-1.3-4.2 2.3c-7.7 4-13.8 2.3-17.5-4.9-2-3.8-6.9-5-17.7-4.1m-70.3 37.3l-1.7 4a61.3 61.3 0 0 0 0 25.6c.6 1.5 1.1 3.2 1.1 3.7 0 3.5 8.1 15.5 13.1 19.5 1.5 1.2 2.6 2.5 2.6 3 0 1.3-1.4 6.4-2.2 8.4-2.7 6.2-1.6 9.2 2.7 7.7l5.8-1.4c7.3-1.3 7.3-2.4.3-9.5-3-3-5.5-5.7-5.5-6l1.5-3.5c4.7-10 3.6-26.2-2.7-38.8-5-9.9-13.3-16.9-15-12.7M570-116a9.4 9.4 0 0 0-1.7 2.6c0 .3-.6 1.2-1.2 2a24 24 0 0 0-2.1 3l-3.7 5.9-6.4 9.9c-.5 1-.7 1-3.4 0l-4.7-.9c-1 0-2.8-.4-4-1-4.3-2-7-1.2-7 1.9 0 2.3 1.6 3.4 5.4 4 5.3.7 6.3 3.4 1.8 4.6l-4.5 1.5c-2.4 1-5.3 2-10.7 3.7a225.8 225.8 0 0 0-14.4 5c-15 4.6-15.3 5-12 13.8l2.4 7.3c.4 1.6 1 3.2 1.2 3.5.3.2.8 1.7 1.1 3 .4 1.5 1 3.4 1.4 4.2.4.8 1 2.6 1.4 4 .9 3 2.2 6.8 3.5 10 .5 1.2 1.2 3.3 1.5 4.6l1 3c.3.2.8 1.7 1.3 3.3a123 123 0 0 0 2.4 7.3c1 2.5 2 5.5 2.2 6.7.7 2.6 3.2 5.1 4.6 4.5 2.4-1 5.1-.9 5.5.3.8 2.6 3.2 2.4 13.4-1.1 4.5-1.6 5.7-2.7 5.7-5.1v-2l4.3-1.6c2.4-1 4.6-1.7 5-1.7a92.6 92.6 0 0 1 13.5-4.7l7.5-2.6a148.8 148.8 0 0 1 11-3.8c2.3-1 6.2-2.3 10.2-3.5 1.7-.5 4-1.3 5-1.8 2.9-1.2 4.4-1 5.4.5 1 1.6 4.7 1.8 8 .3a46 46 0 0 1 5-1.8c4-1.2 6-3 5.8-5-.2-1.3 0-1.6 2.6-3.2 1.6-1 3-2.1 3.2-2.5.3-.8-1.8-8-3.2-10.8L632-53c-.9-3-2.2-6.8-3.5-10.2-1.1-2.9-2.4-6.5-3.6-10.7-.5-1.8-1.2-3.6-1.5-4.2-.3-.6-1-2.2-1.3-3.7-1.2-3.9-2.4-7.5-3.5-10.2-1.3-3.4-2.6-7.2-3.4-10.2-1.6-5.5-4-5.7-16-1.3-2.4 1-5.5 2-6.8 2.4a149 149 0 0 0-14.9 5.2 120 120 0 0 0-7 2.4c-8.6 3.1-9.2 2.5-4.7-4.2.8-1.3 2-3 2.3-4l3-4.4c1-1.6 2-3.1 2-3.4 0-.4.5-1 1-1.6 1.3-1.1 1.8-3.7 1.1-5.6-.8-2.2-3-2-5.1.6m82.5 1.9c1.3 1.4 1.1 2.7-.7 3.4-2.5.9-4-2-2.2-3.9 1.1-1 1.4-1 2.9.5m-186.4 10c-22.5 9.7-16.4 41 8 41 18.6 0 28.7-20.1 17.3-34.6a23.3 23.3 0 0 0-25.3-6.4m144.8 5.6a9.8 9.8 0 0 1 1.3 3.5c0 .7.6 2.5 1.3 4 .7 1.3 1.3 3.1 1.3 3.8 0 .8.5 2 1 3 .6.8 1.2 2.6 1.4 3.9.2 1.2.8 3 1.4 4 .5.8 1 2 1 2.5 0 .6.5 2.3 1.3 3.8a14 14 0 0 1 1.3 4c0 .6.4 2 1 3 .5 1 1.1 2.8 1.3 3.9.2 1 .8 2.7 1.4 3.6a7 7 0 0 1 1 3c0 .6.5 2.4 1.2 3.9.7 1.4 1.5 4 1.7 5.5l.3 3-3.2 1.5c-1.7 1-3.7 1.6-4.3 1.7-.7 0-2.4.5-3.8 1.3-1.5.7-3.2 1.2-3.9 1.2a7 7 0 0 0-2.9 1c-.9.6-2.6 1.2-3.7 1.4A11 11 0 0 0 605-31c-.6.4-2.3 1-3.8 1.3a17 17 0 0 0-4.4 1.6 7 7 0 0 1-2.9 1c-.7 0-2.2.4-3.2 1-1 .5-2.8 1.1-3.9 1.3-1.1.2-2.7.8-3.6 1.3-.9.5-2.5 1.1-3.6 1.3-1.1.2-3 .8-4.2 1.3a84 84 0 0 1-10.2 3.5c-1.6.5-3.3 1.1-4 1.5-.5.4-2 .9-3.1 1.1-1.2.2-3 .8-4 1.3-1 .6-2.2 1-2.8 1-.6 0-2.3.6-3.8 1.3-1.6.7-3.3 1.3-4 1.3-.6 0-2.3.6-3.7 1.3-1.4.8-3.2 1.3-3.9 1.3-.7 0-2 .5-2.9 1-4.8 3-8.4 1.4-9.4-4.4-.2-1.1-.8-2.8-1.4-3.7a7 7 0 0 1-1-2.9c0-.6-.6-2.4-1.3-3.8-.7-1.5-1.3-3.2-1.3-3.8 0-.7-.4-2.1-1-3.2a18 18 0 0 1-1.4-4 13 13 0 0 0-1.3-3.6 7 7 0 0 1-1-3c0-.7-.6-2.4-1.3-3.9-.7-1.4-1.3-3.2-1.3-3.9 0-.7-.5-2-1-3-.6-.9-1.2-2.5-1.4-3.6-.2-1.1-.8-2.8-1.3-3.9-2.2-4.4-2.3-9.3 0-9.4.4 0 2-.6 3.4-1.3 1.5-.7 3.2-1.3 4-1.3.7 0 2-.4 2.8-1a13 13 0 0 1 3.7-1.3c1.1-.2 3-.8 4-1.4 1-.5 2.4-1 2.9-1s2.2-.6 3.7-1.3a14 14 0 0 1 4-1.3c.7 0 2.4-.6 3.7-1.3a11 11 0 0 1 3.8-1.3c.7 0 2-.4 3-1 .8-.5 2.5-1.1 3.6-1.3 1.1-.2 2.9-.8 4-1.4 1-.6 2.4-1 3.1-1 .7 0 2.5-.6 4-1.3 1.4-.7 3.1-1.3 3.8-1.3.7 0 2-.5 2.9-1 .9-.6 2.5-1.2 3.7-1.4a13 13 0 0 0 3.7-1.3 7 7 0 0 1 2.9-1c.7 0 2.5-.6 4-1.3a14 14 0 0 1 4-1.3c.6 0 2-.5 3-1 1-.6 2.8-1.2 3.9-1.4 1.1-.2 2.7-.8 3.6-1.3.9-.5 2.5-1 3.6-1.3 1.1-.2 2.9-.8 4-1.4 3.1-1.7 5-1.3 6.5 1.3m-133 2a12.8 12.8 0 0 1-3.8 25.2 12.8 12.8 0 0 1-4-25.2c4.1-1.3 3.8-1.3 7.9 0m117.7 7.8c-7.7 1.9-13.3 14.8-9 21 7.7 11.1 20.2 11.1 27.4 0 1-1.5 1.4-9.8.6-12.7-1.7-6-11.3-10.2-19-8.3m8 4.9c4.7 1.2 7.6 6 6.6 11.2-1.2 6.8-8.8 10.5-14.6 7.2-10.9-6.5-4.3-21.7 8-18.4m-32 .6c-1.2.5-3.5 1.3-5.3 1.8-1.8.5-3.7 1.2-4.4 1.5-.6.4-2.2 1-3.6 1.4-2.8.8-6.6 2-10 3.4-2.2.9-6.3 2.2-11.5 3.9l-6.8 2.3c-2.4 1-5.5 2-6.8 2.3-1.3.4-3 1-3.9 1.5-.9.4-2.4 1-3.5 1.1-4.3.8-4.5 3.4-1 12.4.6 1.3 1.2 3.2 1.4 4.2.2 1 .7 2.4 1 3.1.4.7 1 2.5 1.5 4 .9 3 2.2 6.7 3.5 10.1 1.3 3.6 2.6 7.3 3.6 10.8 1.2 4 3 7.5 4 7.9 1 .4 6.9-.8 8.8-1.8.8-.4 2.6-1 3.9-1.4 3-.9 7-2.2 10-3.5 1.3-.5 3.4-1.2 4.7-1.5l2.9-1c.3-.3 1.8-.8 3.4-1.3 1.6-.4 4.9-1.5 7.3-2.4a478.8 478.8 0 0 0 20.4-7c4-1.6 4.7-3.7 2.7-8.3-1-2.2-1.8-4.5-3.8-10.6l-2.6-7.6c-.9-2.4-2-5.6-2.3-7-.3-1.5-1-3.5-1.4-4.5A89.8 89.8 0 0 1 580-80c-.8-3.9-3.8-5-8.4-3.3m2.7 4.8c.8.6 3.3 5.7 3.3 6.9 0 .5.6 2.2 1.3 3.8a14 14 0 0 1 1.3 4c0 .7.5 2 1 2.9.6.9 1.2 2.6 1.4 3.7a11 11 0 0 0 1 3.3c.5.6 1 2.4 1.4 3.9.3 1.5.9 3 1.2 3.5.4.5 1 2.2 1.3 3.8.4 1.7.9 3.1 1.1 3.3 1.8 1.1-.9 4.3-4 4.8-1.1.1-2.7.7-3.6 1.2-.9.5-2.5 1.1-3.7 1.3-1.1.2-2.9.9-3.9 1.4-1 .5-2.3 1-2.8 1-.6 0-2.4.6-3.9 1.3-1.5.7-3.3 1.3-4 1.3-.5 0-2.2.6-3.7 1.3-1.4.7-3.1 1.3-3.8 1.3a7 7 0 0 0-2.9 1c-.9.5-2.6 1.1-3.7 1.3-1.2.2-2.6.7-3.3 1.1-.6.4-2.3 1-3.7 1.3-1.4.3-3.5 1-4.6 1.6-3.1 1.6-6 1-6-1.2 0-.7-.5-2.5-1.2-4-.8-1.5-1.3-3.2-1.3-3.7s-.6-2.2-1.4-3.8a14 14 0 0 1-1.3-4c0-.7-.4-2-1-2.9-.5-.9-1-2.6-1.3-3.7-.2-1.2-.7-2.6-1.1-3.3a14 14 0 0 1-1.3-3.9 9.7 9.7 0 0 0-1.3-3.6c-2.9-3.2-1.1-8.4 3-9.1 1.3-.2 3-.8 3.8-1.3.9-.5 2.6-1 3.9-1.3 1.3-.2 3-.8 4-1.4.8-.5 2.1-1 2.8-1 .8 0 2.5-.6 4-1.3 1.4-.7 3.1-1.3 3.8-1.3.7 0 2-.4 2.9-1a13 13 0 0 1 3.7-1.3c1.1-.2 2.9-.8 4-1.3 1-.5 2.7-1 3.8-1.3 1-.2 2.7-.8 3.6-1.4 1-.5 2.3-1 3-1 .7 0 2-.4 2.9-.8 1.3-.8 3.6-1.6 4.4-1.7.2 0 .5 0 .9.3m34 24.7c-3.9 1.2-5.2 3.2-3.6 5.3l1 1.2 2.8-1c3.6-1.2 4.1-1.7 4.1-3.4 0-2.4-1.2-3-4.2-2.1m188 5.5c-6.6 4.6-5 23.7 2.4 28.2 3.3 2 4.6 4.1 5.2 9 2.6 20.1 5.2 27.9 9.1 27.9 3.5 0 2.4-12-2.3-26.6-1.8-5.4-1.9-8.8-.3-11.2 7.5-11-4.5-34-14.1-27.3M609.8-44c-1.9.8-3 2.9-2.3 4.2 1.3 2.4 8.4.3 8.8-2.6.3-2-3.4-2.8-6.5-1.6M448-39.2c-1.6.2-3.4.7-4.2 1.2-.7.4-2 1-3 1.2-3.6.7-3.5.1-3.7 23.2-.2 25.8-.3 24.6 3.4 26.7 1.5.9 3.2 1.6 3.8 1.6.5 0 2.7.5 4.8 1a31 31 0 0 0 14.4.3c1.4-.4 3.7-.9 5.1-1 2.8-.5 7.5-3 7.9-4.4L477 8c.3-1.9 1.2-2.4 4.5-3 2.2-.3 7.2-4.9 7.2-6.5 0-.4.5-1.8 1.1-2.9a20 20 0 0 0 .6-13.4l-1.4-3.6c-1-3.7-5.1-7.4-9-8-2.6-.5-3.3-1.2-3.3-3 0-5.4-13.7-8.8-28.8-6.8m21.3 4c5.9 2.2 5 4.4-2.6 6-11 2.5-26 .2-26-4 0-3.5 20.5-5 28.6-2m192.3.3a15 15 0 0 0-9.2 14.7c0 4.2-.7 5.6-3 5.6-.3 0-1.6.5-2.8 1-1.2.5-3 1.2-4 1.4-2.2.4-6.8 2.8-6.8 3.5 0 1 2 7.9 2.5 8.4.3.4.8 2 1.3 3.5.9 3.3 2.2 7 3.5 10.5.6 1.3 1.3 3.4 1.6 4.7.3 1.3.8 2.6 1 2.8.2.3.8 1.9 1.2 3.4 3.5 12.4 5.1 15.1 8.2 13.8l4.2-1.5c2.9-.8 6.8-2.2 10-3.4 2.4-1 5.4-2 10.6-3.7a225.8 225.8 0 0 0 14.4-5c6-1.8 9.3-3 11.3-3.8 1.1-.5 2.9-1.1 3.9-1.3 5.2-1 7.4-4 5.5-7.6-.5-1-1.2-2.8-1.6-4.1L711.1 1c-1-2.4-2.1-5.8-2.6-7.6-1.7-5.4-3.1-9.4-5.8-16.6-.5-1.5-1.3-3.7-1.6-5-1-3.7-3-3.7-12.1 0-5.6 2.2-6.6 2-10.2-2-5-5.6-11-7.3-17.2-4.8m84.2 5.2c-1.3 1.2-2.3 2.5-2.3 2.8 0 .4-.6 1.7-1.3 3a19 19 0 0 0-1.7 4.5c-.2 1-.7 2.5-1.1 3.2-.6.8-1 3.2-1.2 7C738-6 737.5-2 737-.4c-.5 1.7-1.1 6.5-1.4 10.7-.2 4.3-.8 9-1.2 10.5-.4 1.5-1 5.7-1.1 9.4-.2 3.7-.7 8-1.1 9.6-.5 1.6-1 6.5-1.3 11-.3 4.4-.8 9.3-1.3 10.7-2.5 8-1.5 16.5 2 17.3 1 .2 2.7 1 4 1.6 1.3.7 2.8 1.2 3.4 1.2.6 0 1.8.5 2.7 1a13 13 0 0 0 3.6 1.4c1.2.2 2.5.7 2.9 1 .4.4 1.9 1 3.2 1.3 1.4.3 3.3 1 4.2 1.6 1 .6 2.1 1 2.6 1 1.7 0 2.1 1.4 1 3.5L758 96c-1.5 6.6-4.2 8.8-7.8 6.6a13 13 0 0 0-3.7-1.4 13 13 0 0 1-3.7-1.3c-.9-.6-2-1-2.6-1-.6 0-2.2-.6-3.5-1.3-1.4-.7-3-1.3-3.7-1.3-.7 0-1.9-.5-2.8-1-3.8-2.6-8.8-1-9.4 3.1-.7 4.1 1.6 5.8 13.4 9.8a39 39 0 0 1 4.1 1.7c1 .5 2.7 1 3.7 1.3 1 .2 2.6.8 3.5 1.3.9.6 2.1 1 2.7 1 .7 0 2.3.6 3.6 1.3 1.4.8 3 1.4 3.5 1.4.6 0 1.8.4 2.7 1 1 .5 2.6 1.1 3.7 1.3 1.1.2 2.7.8 3.6 1.4 1 .5 2.1 1 2.7 1 .5 0 2 .5 3.4 1.3 1.4.7 3 1.3 3.5 1.3.6 0 2.1.6 3.5 1.3 1.4.7 3 1.3 3.6 1.3.6 0 1.8.5 2.6 1 .9.6 2 1 2.5 1s2.4.7 4.3 1.5c5.6 2.3 8.8.8 8.8-4.3 0-3.2-3-5.8-7.6-6.8-1-.2-2.2-.7-2.8-1-.6-.5-2.3-1-3.7-1.4-1.4-.3-2.9-1-3.3-1.3a7 7 0 0 0-2.7-1c-1-.3-3-1-4.4-1.7-1.4-.6-3-1.2-3.5-1.2-1.9 0-2.3-3.3-.6-5.2.4-.5 1-1.9 1.2-3.2 1.4-6 4.1-7.5 9-5 1.4.8 3 1.4 3.7 1.4.6 0 1.8.4 2.7 1a13 13 0 0 0 3.5 1.3c1 .3 2.5.9 3.4 1.4 1 .6 2.1 1 2.6 1s2.2.6 3.8 1.3c4.3 2.1 9.1 2.1 10.8 0a148.2 148.2 0 0 0 13.4-18.6c1.8-2.3-.9-7.2-4-7.3-.6 0-2.2-.6-3.6-1.3a13 13 0 0 0-3.6-1.3c-.5 0-1.7-.4-2.6-1-1-.5-2.6-1.1-3.7-1.3-1.2-.2-2.7-.7-3.3-1.1-.6-.4-2.4-1-4-1.4-1.4-.3-3-.9-3.5-1.3s-2-.8-3.4-1c-1.4-.2-3.3-.8-4.1-1.3-1-.5-2.8-1-4.2-1.3-1.5-.2-3.5-.8-4.5-1.3-1-.6-2.4-1-3.2-1-.9 0-3-.6-4.6-1.3-1.7-.7-3.8-1.3-4.6-1.3-.8 0-2.3-.5-3.4-1-1.1-.7-3-1.3-4.3-1.5a8 8 0 0 1-4-1.7l-1.6-1.4.2-5.7c.4-9 2-11.8 5.7-9.7 1 .5 2.6 1.2 3.6 1.4 1 .2 2.5.8 3.4 1.3.9.6 2 1 2.6 1 .6 0 2.3.6 3.7 1.3 1.4.7 3 1.3 3.6 1.3.5 0 1.7.5 2.6 1a13 13 0 0 0 3.7 1.4c1.2.2 2.7.8 3.4 1.4.7.5 1.8 1 2.5 1 .6 0 2.4.5 3.8 1.3 4.2 2.2 11.4 2.1 13.7-.2 4.6-4.6 0-11.6-8.6-13.5-1-.2-2-.6-2.5-1-.4-.4-1.8-1-3.1-1.3-1.3-.3-3.3-1-4.4-1.6-1.2-.5-2.6-1-3.1-1-.6 0-1.8-.5-2.7-1a13 13 0 0 0-3.4-1.4 13 13 0 0 1-3.4-1.3c-.9-.5-2.6-1-3.8-1.3-1.2-.2-2.5-.7-2.8-1-.3-.5-1.5-1-2.5-1.1-1-.2-3.1-1-4.5-1.8l-2.6-1.4-.2-4.6c0-2.6.2-6.6.7-9.4 1.5-8.5 1.8-11.4 2-23.3v-11.8l-1.7-2.2a8.7 8.7 0 0 0-3.2-2.6 18 18 0 0 1-3.1-1.3 7.5 7.5 0 0 0-9.2 1.2m-74.6-.4c5.7 3 6.3 6.2 1.4 7.6-1.4.4-3.7 1.1-5 1.7-8.5 3.5-10.4 3.4-10.4-.5 0-7 7.8-12 14-8.8m-188.5 6.9C489.4-17 487.2.6 479.8.6c-2.9 0-3-.6-3-12.6 0-9.2.1-11 .8-11.7 1.2-1.2 3.5-1 5.1.5M694.2-20c.8 1.3 2.6 6 4.5 12.2l2.4 6.8a208.2 208.2 0 0 1 4 12c.6 1.9-2.5 3.5-12.3 6.5-3.2 1-7 2.4-10 3.5-2.7 1-6.2 2.3-10.7 3.6l-5 1.7c-6.6 2.9-9.4 3-10 .7l-1.5-4c-1-2.7-2.3-6.2-3.6-10.7-.5-1.8-1.2-3.6-1.5-4.2-.6-1.1-2.5-6.8-3.4-10-.8-3.1.2-4.4 4.2-5.5 1.6-.4 5-1.6 7.5-2.5 2.4-.9 5.5-2 6.8-2.3 5-1.6 9.2-3 10.7-3.7a127 127 0 0 1 10.8-3.6l3.4-1.3c1.6-1 2.7-.7 3.7.8m146 39.2c-22.6 8.8-16.7 41.5 7.6 41.5 20.7 0 29.8-27 13-38.7-6-4.2-14-5.3-20.5-2.8m11.9 7.8a12.7 12.7 0 0 1 7.3 18.4c-6.8 12-25 7.3-25-6.4 0-9 8.5-14.7 17.7-12m-332.8.3c-12 1.1-21.2 9-17.1 15a359.2 359.2 0 0 1 6.6 9.8c2.2 3 2.2 3.7.8 7.8-.5 1.7-1 3.6-1 4.3 0 .6-.5 2.4-1 4-1 2.5-1.4 4.3-3.6 13.2a101 101 0 0 1-1.8 6.1c-.5 1.7-1 3.5-1 4s-.3 2-.8 3.3c-.4 1.2-1.3 4-1.8 6.2-2 8.5-2.7 10.8-3.7 13.6-2 5.7-1.9 10.4 0 11.5 2.8 1.5 5.4-1.3 6.4-7 .3-1.7.9-3.8 1.2-4.5.4-.7.9-2.4 1-3.7l1.4-5.2c1-2.7 1.3-4.1 3.7-13.6a278 278 0 0 1 3.7-13.6l1.5-6.2c.3-1.5.7-3.2 1-3.7.3-.6.8-2.3 1.2-3.8 1.1-5.6.6-5.6 16.4 2l8.9 4.1c6.7 3.2 7.1 3.9 5.5 9a189 189 0 0 0-3.7 13.2c-1.4 5.8-2.5 9.8-3.7 13.4-2.2 7-1.5 11.7 1.7 11.7 1.6 0 4-3.3 4.8-6.8 1-4.3 2.2-8.7 3.5-13.3a302 302 0 0 0 3.6-13.8c1.7-7.3 2.9-8.4 7.1-6.6 1 .4 3.3 1 5 1.3 1.9.4 4 1 4.6 1.3.8.4 2.4.9 3.7 1 7.2 1.1 7.8 2.2 5.6 9.6-1.2 4-1.5 5.1-3.2 12l-1.8 6.5c-1.4 4.6-3.2 11.1-4 14.6-1.6 6.7-2.5 9.8-3.4 12.5a40 40 0 0 0-1.3 5.3c-.2 1.3-.8 3.5-1.4 4.8-2 5.1-1 8.8 2.1 8.8 2.6 0 3.6-1.2 4.5-5 .9-3.6 2-8 3.5-12.8.9-3.1 1.5-5.4 3.1-12l1.9-6.6c.7-2.3 1.2-4.6 1.2-5 0-.5.5-2.2 1-3.7.6-1.5 1.3-4.1 1.6-5.8l1-4c.4-.6 1-2.6 1.4-4.6.4-2 1.3-5 2-7l1.1-3.3h3.2c5.6 0 26.6 1.3 28.2 1.7 2 .5 2.2 1.8.9 6.3l-1.6 5.7a1706.4 1706.4 0 0 1-6.9 25.7l-1.8 7.4c-.5 1.8-1.3 4.6-1.9 6.2-1.8 5-.8 8.4 2.5 8.4 1.5 0 3.8-2.2 3.8-3.6 0-.5.4-2 .9-3.3l1.8-6.2c2-8.4 2.7-10.8 3.6-13.6.6-1.5 1.2-3.9 1.3-5.2.2-1.3.6-2.8.9-3.3.3-.5 1-2.8 1.5-5.2 4.3-18.6 5.5-21 11.7-22.3 6.9-1.6 11.4-6.7 10.5-12-.8-4.5-9.7-14.1-16.7-18a62.5 62.5 0 0 0-31-15c-1.2-.3-2.3-.8-2.5-1-.2-.3-1.6-.8-3.3-1.1-1.6-.4-3.6-1-4.4-1.4-.7-.4-2.8-1-4.7-1.4l-14-3.5c-2.2-.5-5.2-1.1-6.8-1.3l-5.8-1a176 176 0 0 0-38.4-1.3m-61.7 12.5c-2.6.4-7.2 3.2-8.3 5-1.2 1.8-3.2 2.5-4.8 1.7a156 156 0 0 0-13.6-6.7c-.8 0-3.1 3-3.6 4.7-.2.7-.7 1.7-1 2.1A815.2 815.2 0 0 1 412 73.8l-3.8 7c-.9 1.1-1.2 4.3-.5 4.9.7.5 4.3 2.4 20 10.6l34.3 17.8c4.6 2.4 5 2.2 8.7-4.9a1909.1 1909.1 0 0 0 12-23.1l4.5-8.6c3.8-7 3.4-7.6-8.8-13.3-4-1.9-4.5-3-3.5-6.8 2.6-10.1-6.6-19.6-17.3-17.6m8.7 6.5c3.8 2.9 5.5 9.3 3 11.5-.9 1-1.1.8-6.4-1.9l-7.9-4c-3.4-1.6-3.4-3.5 0-5.8 3.7-2.4 8-2.3 11.3.2m-22.6 8.1l18.6 9.7c19 9.8 17.6 8.5 14.7 14l-5.3 10c-10 19.7-8 18.3-18.5 13-11.5-6-27-14-32.5-17-3.5-1.9-4.3.5 8.4-24.2 2-4 4.3-7.8 5-8.4l1.3-1.2 2.5 1.2 5.8 3m230.6 20.7c-1 .4-3.3 1-5.2 1.3-1.8.2-4.5 1-5.8 1.5-1.4.6-3.2 1-4.1 1-3.6 0-4.5 1.9-4.9 10.3-.2 4.3-.7 8.3-1.1 9.6-2 5.4.6 12.5 6.6 18.9a36 36 0 0 1 9.3 13.1c0 .6.5 2 1.2 3.2l1.5 3c.2.5 1 .8 2.3.8h2v-4.2c0-3.3-.2-4.9-1.2-7-1.3-3.1-1.4-8.2 0-9 1.1-.7 5.9 1.2 10.2 4a1996.2 1996.2 0 0 0 8.1 5.4c.7.5 2.1 1.1 3.1 1.3 1 .3 2.3.8 2.9 1.2 1.5 1 7.3.9 10.8-.4a19 19 0 0 1 4.7-1c1 0 2.8-.5 4-1 1.3-.6 2.9-1.1 3.6-1.1 3.4 0 6.2-2.7 5.6-5.3-.4-2-5-6.6-6.9-7a22 22 0 0 1-3.6-1.3c-1.2-.5-3-1.2-4.1-1.4-1.1-.2-3.5-1.1-5.2-2l-5-2.8a65.5 65.5 0 0 1-16.8-18.6l-3.6-5.6L681 79c-1.8-4-3.7-5.2-6.7-3.8m162.7 37.3a16.2 16.2 0 0 0-10.7 19.6 15.2 15.2 0 0 0 28.5 4.6c7.2-12.3-5-28.8-17.8-24.2m9.9 7.9c3.9 3 5 7.3 3 11.8-3.5 8-13.3 8.2-17.1.4-4.4-9 6.4-18.4 14-12.2m-379.5 25.3c-.8 1-.5 7.3.7 14.1.4 2.3.9 7 1 10.2l1.4 13.9c.6 4.3 1.2 10.1 1.3 13 .5 7.4-.2 7.1 15.7 7.1 16 0 15 .9 16-13.6.7-10 .5-9.6 5-10 6.7-.9 13.7-5.7 15-10.4.3-.7.8-1.9 1.3-2.6 3.4-5.4-2.1-17.5-9.7-21.3-2.8-1.3-46.6-1.8-47.7-.4M789 149c-.7.8-1 2.1-1.3 5.1-.2 2.3-.7 6-1.1 8.3-1.4 7.2-.9 9.8 3.2 14.8 1.9 2.4 2.1 3.7 1.3 6.2-.3.8-.9 3.9-1.3 6.7l-1.6 8.7c-1.1 5-1 16.9 0 18 1.3 1.3 3.9.8 5-.8 1.3-1.7 2.8-12.5 3.6-25.8.6-9.9.7-10.2 4.8-12.5 3.2-1.7 4-4.4 5.2-17.3.7-8.2.5-9.3-2-9.1l-2 .1-.4 5.3c-.6 7.8-.8 8.7-1.8 8.5-.8-.2-1-1-1-7.5 0-7.9 0-8.6-2-8.6-1.8 0-2.2 1.2-2.8 8.1-.6 6.5-1.1 7.8-2.4 6.5-.6-.6-.7-1.8-.2-7.4.6-8-.3-10.2-3.2-7.3m-276 3.5c8.3 4.6 7.6 17.4-1 20.3-6 2-6.6 1.3-6-8.8 1-13.6 1.6-14.5 7-11.5m134 2.2a51 51 0 0 0-31 11c-2.2 1.1-2.2 1.2 1.3 4.3a46.7 46.7 0 0 0 20 9.3c4 1.4 23.8 1.2 28-.3 1.6-.6 3.4-1.1 3.8-1.1 4 0 16.9-8.1 16.9-10.6 0-2.2-10-8.5-15.3-9.6-1-.2-2.4-.7-3.2-1.1-1.3-.7-15.4-2.4-17.6-2.2l-2.9.3m-51.7 3.4c-.4 1.6-.4 17.9 0 19 .4 1 2.4 1 4-.3a14 14 0 0 1 2.5-1.5c.7-.3 3-1.6 5-3 2-1.2 3.9-2.3 4.2-2.3 1.3 0 2.5-3.3 1.5-3.9l-2.6-1.6a145.3 145.3 0 0 0-10.6-6.3c-2.6-1.5-3.6-1.5-4 0m79.3 7c1 1.6 1 1.6-.5 3.2-2 2.5-4.9 1.2-4.9-2.1 0-3.1 3.8-4 5.4-1.2m53.2.6c-1.6.3-7.5 2.5-10 3.9-1 .5-2 1-2.3 1-1.5 0-3.3 3-3.9 6.6-1.1 6.6-4.4 9-11.5 8.3l-3.4-.3-2.1 2.3c-7.6 8.1-9.5 13.3-8.6 23 1.6 17.6 1.3 17.2 7.7 16.7 8.9-.6 9.2-.9 8.7-7.5l-.4-4.4 1.8 1.4a23 23 0 0 1 3.3 3.3 1417.4 1417.4 0 0 0 15.5 19.2l3.6 4.4 7.1 8.8c9.1 11.2 8.7 11 14 6.9 8.1-6.3 28-22.5 29.3-24 2-2.2 2-2.3-4-9.4a356.7 356.7 0 0 1-10.6-13.4l-2.7-3.1-7-8.8c-9-11-11.5-14.4-11.2-15 .5-.7 3.2-.5 5.3.4 3.6 1.5 5.3.3 6.5-4.8a24 24 0 0 1 1.4-4c1.7-3.4.2-5-6.9-7a125 125 0 0 1-7-2.3c-6.7-2.4-9-2.8-12.6-2.2M552 186.5c-.5.8-1.2 2.5-1.3 3.8l-1.3 6.1c-.6 2-1.2 4.9-1.3 6.3a36 36 0 0 1-1.1 5c-.4 1.3-1 4-1.3 6-.3 2-.9 4.7-1.3 6-.4 1.3-1 4-1.3 6-.3 2-.8 4.7-1.2 5.8-.4 1.1-1 3.4-1.1 5a66 66 0 0 1-1.4 6.7c-3.7 14.8-3 16.8 6.4 18.1 2.2.3 9.6 1.9 18.2 3.9l7.9 1.5c1.8.3 4.3 1 5.4 1.3 1.2.5 2.9.8 3.8.8.9 0 3.8.6 6.5 1.3 2.7.7 6.1 1.4 7.6 1.6 1.5.2 3.7.6 4.8 1 1.2.5 3.9 1 6 1.3 2 .3 4.7.9 5.9 1.3 1.1.4 3.4.9 5.1 1.1 1.7.2 4.2.7 5.7 1.2l6.8 1.5c2.4.4 5.6 1 7.2 1.5 7 2 8.9.9 10.2-6.2a190.3 190.3 0 0 1 2.8-13.1 322 322 0 0 1 5-23.6c1.7-8.7 2-10 2.7-13 4-17.3 3.8-18.1-7-19.9-2.5-.4-5.2-1-6-1.3a33 33 0 0 0-5.3-1c-2-.4-4.8-1-6-1.4-1.4-.4-4-1-6-1.3-2.1-.2-4.7-.8-6-1.2a29 29 0 0 0-5.1-1.1c-1.7-.2-4.2-.7-5.5-1.1-1.3-.4-4.4-1.1-6.8-1.5l-7.3-1.6a218.2 218.2 0 0 1-21-4.5l-6.7-1.3-5.7-1.3c-5-1.5-9.6-1.4-11 .3m13.4 7.3c2.7.7 5.6 1.3 6.4 1.3.8 0 2.9.5 4.6 1a41 41 0 0 0 6.1 1.3c1.7.2 4.2.8 5.7 1.2l6.6 1.5c2.2.3 5.5 1 7.4 1.4 7.3 1.8 12.9 3 15.1 3.3 9.2 1.3 11.7 4.5 8.5 10.6-.3.5-.8 2.7-1.1 5-.3 2.2-1 5.6-1.6 7.5-.6 2-1 4.2-1 4.9 0 .7-.4 2.6-.8 4.2-.5 1.5-1.2 4.7-1.6 7-.4 2.3-1 4.9-1.3 5.7-.3.8-.8 3.1-1 5.2-.8 5-3 13-3.8 13.5-.3.2-2 0-3.8-.6-1.8-.5-4.5-1-6-1.3-1.7-.2-4.5-.8-6.3-1.3-1.9-.5-4.8-1.2-6.6-1.5-1.7-.2-4.6-.8-6.5-1.3l-6.3-1.4-7-1.3-8.1-1.8-7.9-1.8c-6.2-1.2-10-2.3-10.4-2.9-.4-.6.4-5.2 1.9-11.5l1.4-7.1 1.5-7.3A412.5 412.5 0 0 0 555 203c.4-2 1-4.6 1.1-6 .6-4.7 1.9-5.2 9.5-3.2m79.4 23c4 4.5 1.5 12-4.3 13-4.4.8-7.3-.7-9-4.7-3.5-8 7.6-14.8 13.3-8.3m-9 2c-3.2 3.5-1.2 8.2 3.5 8.2 1.8 0 4.2-2.7 4.2-4.7 0-3.8-5.2-6.2-7.7-3.5m3.7 15.2c3 2.5 4.2 10.6 1.8 12l-1.9 1.6c-3.3 2.6-9.3 1.4-11.7-2.5-1.2-1.9-.4-8 1.3-9.5 4.2-4 7.2-4.4 10.5-1.6m-8 4c-3.8 3.7 1.2 9.8 5.6 7 2-1.3 2.2-1.7 2.2-4.2 0-4.2-4.8-6-7.9-2.8m-4.3 13.7c.9 2-.1 4.7-1.5 4.5-1.4-.2-1.8-2-1-4.2.7-1.8 1.8-1.9 2.5-.3m7 1.4c1 2 .6 3.5-1.3 4.2-2.3.8-2.8.5-3.2-1.8-.6-3 3-5 4.5-2.4m5.1 2.8c.2 2.7-.8 3.7-2.4 2.6-1.3-.7-1.3-1.7 0-3.7 1.3-2.3 2.2-1.9 2.4 1.1"/>
    <path fill="#4b823e" fill-rule="evenodd" stroke="null" stroke-width="1.41951" d="M430 412.7c4 11.4 4.7 12.5 10.7 15.3l4.3 2 4.2 13c6.5 19.5 9.5 25.2 13.4 25 4.5 0 2.3-10-6-27.3-5.6-11.7-5.6-11.6-3.6-15.5 3-6.2 3-6-3-20-3-7-3.6-8.1-5-8.7-3.3-1.2-3.4.5-.6 8.3 2.5 6.7 2.7 9.5.7 8.5-.5-.3-3.1-6.2-5.1-12-.9-2.3-3-3.8-4.6-3-1.4.5-1.3 2.5.1 6.3l2.5 6.5c1.2 3.4 1.2 4.8-.2 5-.6 0-2.4-3.6-4.8-10-1.7-4.7-2.3-5.6-3.9-5.5-2.7 0-2.5 1.9 1 12m-38.4 100a16 16 0 0 0 4.8 2.8c4.2 2 4.4 2.2 6.3 5.4 3.9 6.9 3.7 9.2-1.8 19.5-2 4-3.7 7.5-3.6 8 .1 1.3 7.6 4.9 9.3 4.5.8-.1 2.4 0 3.6.2 1.2.2 3.4.3 5 .1 2.7-.3 3.8-.5 6.7-1.2 3-.9 7-1.4 9-1.3 4 .1 6-2.6 5.2-6.7-.2-1-.2-2.2 0-2.6.3-.5.4-1.8.3-3-.1-1 0-3 .2-4.3.2-1.2.1-3.3-.2-4.6l-.5-2.4h-2.7c-3.4.1-3.7-.3-3.8-4.4 0-3.7.8-5.9 3.5-8.4 2.2-2.2 3.5-4.8 3.5-7 0-1 .4-2.8.8-4.1.4-1.4.7-3.4.6-4.5 0-1.1 0-2.7.3-3.7.2-.9.2-2.4 0-3.4s-.1-2.2.2-2.8c.2-.6.3-1.9.1-2.8-.2-1-.2-2.1 0-2.5 1.7-3.5.1-26.7-1.8-27.6-7.4-3.7-18 6-19 17.5a36 36 0 0 1-8.3 17c-1 .7-2.9 2.9-4 4.8-1.3 1.9-3 4-4 4.6-.8.6-2.1 2.2-3 3.4-.8 1.3-2.4 3.1-3.6 4.2-2.5 2.2-3.6 4-3 5.2M481.5 332c-2.4 6-2.3 11.2.4 20.2.8 2.8 2.2 7.6 3 10.9 2.2 8.6 2.6 8.8 11.6 6 9.5-3 9.2-2.7 7.5-9.3-2.2-8.2.2-8 9.1.7 1.9 1.8 3.6 3.4 10.6 9.4a619.5 619.5 0 0 1 15.4 13.6c1.3 1.2 3.5 3 4.8 4.3a209.2 209.2 0 0 0 12 10.6c6 5.1 6.3 5 12.5-2.4a379.2 379.2 0 0 1 13.6-15.4l4.3-4.8a270.4 270.4 0 0 0 13.8-15.8c.6-.7.6-1.2 0-2a56 56 0 0 0-8.1-8c-.6-.3-1.7-1.3-2.5-2.2-.9-1-2.9-2.8-4.5-4.1a80.3 80.3 0 0 1-4.9-4.2c-2.3-2.2-6.4-5.9-11-9.7a34.1 34.1 0 0 1-4.1-3.8 16 16 0 0 0-3.1-2.7c-1.3-1-3.2-2.7-4.3-3.9-1.1-1.1-2.4-2.3-2.9-2.5a2885.7 2885.7 0 0 0-9.8-8.6c-2-2 2.2-2.9 7.7-1.6 4.7 1 5.2.3 7.6-12.8.9-4.7-.7-6.1-7.3-6.6-3.3-.3-11.5-1.5-13.9-2.1a33 33 0 0 0-12.3.2c-4.3 1-7.2 2.7-17 9.8l-2.5 1.8.1 5.2c.3 9.4-4.3 14.6-13.1 14.6-4.7 0-8.2 4.3-12.7 15.2m2.2 86.4l3.2 3.6c3.2 3.8 19.7 12 24.7 12.4 1.8.2 3.7.5 4.2.7 3.4 1.7 19-.3 25.3-3.2 1.8-.9 3.7-1.4 4.1-1.1 1.3.7 5.6 4.4 7.1 6.3 4.7 5.5 8.2 6 8.9 1a49 49 0 0 1 1.4-6.3c2.3-7.7 1.2-8.2-9.1-4.8a72 72 0 0 1-8.5 2.4c-.2 0-1.4-1.5-2.7-3.2-7.4-9.5-23.7-16.2-39-16.1-12 0-22.9 4.7-19.6 8.3m-31.5 78.1c.6 1.5 1.4 2.7 1.7 2.9.2.1.8 1.1 1.3 2.1.4 1.1 1.3 2.7 2 3.6l3.8 6.4 6.5 11c.7 1 .6 1-1.6 3.3a22.1 22.1 0 0 0-3.1 4.1c-.5 1-1.8 2.5-3 3.5-4 3.2-4.5 6-1.5 7.5 2.2 1.2 4 .2 6.5-3.2 3.2-4.8 6.4-4.5 5.3.5l-.7 5.1c-.2 2.9-.6 6.2-1.6 12.2a245.2 245.2 0 0 0-2.2 16.4c-2.7 16.9-2.5 17.3 7.7 18.4 2.8.3 6.5.9 8.3 1.2l3.9.5c.4-.1 2 0 3.5.4 1.6.4 3.7.7 4.7.7s3 .2 4.5.5c3.3.6 7.8 1.2 11.4 1.5 1.5 0 4 .4 5.3.7 1.4.4 3 .5 3.3.5.4-.1 2.2 0 4 .4 1.7.4 5.4.9 8.2 1.2 2.8.3 6.2.8 7.6 1.1 2.8.6 6.4-.6 6.6-2.2.2-2.9 1.6-5.5 2.9-5.3 3 .5 3.9-1.9 5.4-13.5.7-5.1.2-6.8-2.2-8l-1.8-1 .4-5c.3-2.7.6-5.2.8-5.6a100.6 100.6 0 0 1 2-15.4l1.1-8.6a161.6 161.6 0 0 1 1.7-12.5c.1-2.7.7-7.1 1.5-11.6.3-2 .7-4.5.7-5.8.2-3.3 1-4.7 3-5 2.2-.2 4-3.7 4.2-7.5 0-1.4.4-4 .7-5.8.8-4.4 0-7.3-2-8-1.4-.4-1.6-.9-1.8-4.2-.2-2-.6-4-1-4.3a46 46 0 0 0-12-2.1c-1 0-3.2-.3-4.8-.6-3.3-.7-7.6-1.3-11.6-1.6-3.3-.3-7.4-.9-12.1-1.7-2-.4-4-.6-4.8-.6-.7 0-2.6-.2-4.2-.5-4.4-.7-8.5-1.3-11.6-1.6-4-.3-8.3-1-11.6-1.5-6-1.2-7.4 1-9 14.8a229 229 0 0 1-1 7.7 161.8 161.8 0 0 0-2.2 17c-.3 1.6-.8 5.2-1 8-1.1 9.9-2 10.2-6.4 2.6-.8-1.5-2-3.4-2.7-4.2-.6-.9-2-3.1-2.9-5-1-1.9-2-3.5-2.3-3.7-.3-.1-.8-1-1-1.7-.5-1.9-2.8-3.6-5-3.8-2.5-.3-3.4 2-1.8 5.3m41.8-79.2c2-.7 3.2.2 3 2.2-.4 2.9-3.9 3.1-4.8.3-.6-1.6-.4-1.9 1.8-2.5M413.4 603c-1.5 26.5 31.8 35.7 43.6 12.2 9.1-18.2-5.5-37.8-25-33.7-9.4 2-18 12-18.6 21.5m75.7-138c1.5 0 3.4.1 4 .4.7.4 2.7.6 4.5.6 1.7 0 3.7.4 4.4.7.7.3 2.2.5 3.3.5 1.1-.1 3.1.1 4.5.5 1.3.4 3.3.7 4.5.6 1.1 0 2.5 0 3 .3s2.5.5 4.3.6c1.8 0 3.8.3 4.5.6.6.3 2.1.5 3.4.5 1.2 0 3.3.2 4.4.6 1.2.3 3.1.5 4.2.4 1.2 0 2.7.1 3.3.5.7.3 2.7.6 4.5.7 1.8 0 4.5.5 6.2 1.1l3 1v4c0 2-.3 4.3-.6 5a14 14 0 0 0-.6 4.3c0 1.7-.2 3.7-.6 4.4-.3.6-.5 2.1-.4 3.2.1 1.2-.1 3.1-.5 4.3a12 12 0 0 0-.5 3.7c0 .8-.2 2.8-.6 4.4-.4 1.6-.7 3.9-.6 5 .1 1.1 0 2.6-.4 3.3-.4.7-.6 2.3-.6 3.6 0 1.3-.2 3.3-.6 4.5-.3 1.1-.5 3-.5 4 0 1.2-.1 3-.5 4.2-.3 1.2-.7 3.3-.7 4.7-.2 3.3-.8 7.7-1.6 11.6-.3 1.8-.5 3.8-.4 4.6 0 .7-.2 2.3-.5 3.6-.4 1.2-.7 3.2-.6 4.4a9 9 0 0 1-.5 3.3c-.3.5-.5 2.5-.6 4.4 0 1.8-.3 3.8-.6 4.4a14 14 0 0 0-.5 4.3c0 1.7-.3 3.7-.7 4.4-.3.6-.5 2.1-.4 3.3.6 6.1-2.8 8.8-8.8 7-1.3-.4-3.2-.6-4.3-.5-1.2.1-2.6 0-3.3-.4-.7-.3-2.6-.6-4.4-.6a14 14 0 0 1-4.3-.6c-.7-.3-2.3-.6-3.6-.6-1.3 0-3.4-.2-4.6-.6-1.2-.3-3-.5-4.1-.4-1.1 0-2.6-.1-3.3-.5a14 14 0 0 0-4.5-.6c-1.7 0-3.7-.3-4.4-.6-.7-.4-2.2-.6-3.4-.5-1.1.1-3 0-4.2-.4-1.2-.4-3.1-.6-4.4-.6-5.4 0-10.2-2.4-9.1-4.6.2-.4.4-2.2.4-4 0-1.7.3-3.7.6-4.4.4-.7.6-2.2.5-3.3-.1-1 0-3 .4-4.2.4-1.2.6-3.2.6-4.5 0-1.4.2-2.8.5-3.3.2-.6.5-2.5.5-4.3 0-1.9.4-3.9.7-4.6.3-.6.6-2.5.5-4.2 0-1.6.2-3.6.6-4.3.3-.6.5-2.1.4-3.3 0-1.1.2-3 .5-4.2.4-1.2.6-3.2.6-4.4 0-1.3.2-3 .5-3.7.4-.7.7-2.7.7-4.4 0-1.7.3-3.7.6-4.4.3-.6.5-2.1.4-3.3-.1-1.1.1-3 .5-4.2.3-1.3.6-3.2.5-4.3-.1-1.1 0-2.6.4-3.3.3-.7.6-2.7.7-4.5 0-1.9.3-3.9.6-4.5.3-.6.6-2.1.5-3.4 0-1.3.2-3.3.6-4.5.3-1.2.6-3 .5-4.1 0-1 .1-3 .5-4.1.3-1.2.6-3.2.6-4.5-.2-4 1-5.5 4.4-5.8m-62.6 130a14 14 0 0 1 22.6 16 14 14 0 0 1-26.4-8.3c.7-4.6.6-4.3 3.8-7.6m64.7-110.6c-2 8.4 8 20.1 16 19 14.6-2.1 20.7-14.3 13.4-26.7-1-1.7-8.9-6.1-12-6.7-6.7-1.3-15.4 6-17.4 14.4m8.6-5.3c3.6-4 9.6-4.5 14.2-1 6 4.4 5.9 13.6-.2 17.6-11.5 7.5-23.1-6.3-14-16.6M485 510.6a94 94 0 0 1-.8 6 36 36 0 0 0-.6 5c0 .8-.2 2.7-.5 4.1-.6 3.2-1.2 7.6-1.5 11.5-.2 2.6-.9 7.2-1.8 13l-1 7.8-1 7.7c-.4 1.4-.6 3.5-.6 4.5s-.2 2.8-.5 4c-1.4 4.5 1 6 11.5 6.9 1.5.1 3.6.4 4.7.7 1 .3 2.7.5 3.6.5.8 0 2.9.2 4.5.5 3.3.6 7.6 1.2 11.6 1.6 4 .4 8.2 1 12.1 1.6 4.5.8 8.8.8 9.7 0 .9-.8 2.6-7 2.5-9.4 0-1 .2-3 .5-4.5a118 118 0 0 0 1.5-11.4c.1-1.5.5-3.9.8-5.3.3-1.4.5-3 .4-3.3a137.5 137.5 0 0 0 1.6-12.2l1-7.7a520 520 0 0 0 2-15.5c.6-4.7-1.1-6.4-6.6-6.6-2.6-.1-5.2-.4-12.1-1.5l-8.7-1.2c-2.8-.3-6.4-.8-8-1.2-1.5-.3-3.8-.7-5-.7-3-.1-10.2-1-12-1.4-4.1-1.1-6.8 1.2-7.3 6.5m6-.2c1-.6 7.1-.5 8.3 0 .5.3 2.4.6 4.3.6 1.8 0 3.9.4 4.6.7.6.3 2 .5 3.2.4 1.2 0 3.1.1 4.3.5 1.2.4 2.9.6 3.7.5.8 0 2.8.2 4.4.7 1.7.4 3.5.6 4.1.5.6-.2 2.5 0 4.3.5 1.8.5 3.4.8 3.7.6 2-1.2 3.8 3 2.7 6.2a13 13 0 0 0-.5 4.1c0 1-.2 3-.5 4.2-.4 1.2-.6 3.2-.6 4.5a9 9 0 0 1-.5 3.2c-.2.6-.5 2.6-.6 4.4 0 1.8-.3 3.8-.6 4.4a14 14 0 0 0-.5 4.3c0 1.7-.3 3.7-.6 4.4-.4.7-.6 2.1-.5 3.3.1 1-.1 3-.5 4.2-.3 1.2-.6 2.9-.5 3.7.1.8-.1 2.8-.5 4.3s-.7 3.9-.7 5.2c0 3.8-1.9 6.3-4.1 5.2-.6-.3-2.6-.6-4.5-.7-1.8 0-3.7-.3-4.2-.5-.5-.3-2.5-.5-4.3-.6-1.9 0-3.9-.3-4.6-.7-.6-.3-2.1-.5-3.2-.4-1.2.1-3.1-.1-4.3-.5-1.2-.4-2.9-.6-3.7-.5-.9.1-2.8-.2-4.4-.6-1.6-.5-3.5-.7-4.2-.5-4.5 1.3-8.7-3-7.3-7.4.4-1.3.6-3.2.5-4.3 0-1 .2-3 .6-4.4.4-1.3.7-3.3.6-4.5 0-1 .1-2.6.5-3.3.3-.7.6-2.7.6-4.4 0-1.8.3-3.7.6-4.4.3-.7.5-2.1.4-3.3 0-1.1.2-3 .5-4.2.4-1.2.7-3.2.7-4.5 0-1.2.2-3.2.6-4.3.3-1.2.5-3.1.4-4.3 0-1.1.1-2.6.5-3.3.3-.7.6-2.2.5-3.2 0-1.7.2-4.3.5-5.2l.8-.6m40.5-21.2c-.7 4.4.6 6.7 3.4 6.1l1.7-.4.4-3.2c.5-4 .3-4.8-1.3-5.6-2.4-1.2-3.6-.3-4.2 3.1m96.5-180c1.3 8.6 20.7 16.3 28.6 11.4 3.6-2.3 6.3-2.4 11.2-.7 21 7.2 29.7 8.5 31.6 4.6 1.7-3.3-10.4-8-27-10.5-6-1-9.4-2.5-11-5.2-7-12.6-35.2-12.2-33.4.5m-86.2 183.5c-.2 2.1 1.3 4.2 3 4.2 3 0 4.3-8 1.7-9.8-1.8-1.3-4.4 1.9-4.7 5.6m-74 159.3c-.5 1.7-1 3.8-.8 4.7 0 1 0 2.5-.3 3.4-1 4-1.6 3.6 20.7 15 25 12.6 23.8 12.2 27.6 9.7 1.6-1.1 3.1-2.4 3.4-3l3.4-4.1c3.4-4 6.5-9.8 7.2-13.9l1.4-5.5c1-2.9.8-8.7-.4-9.7l-2.2-1.8c-1.6-1.3-1.7-2.4-.7-6 .7-2.2-1.2-9.3-2.8-10-.5-.3-1.5-1.4-2.3-2.6-2.2-3.1-9.1-7-12.8-7-1.4 0-3.3-.2-4.1-.4-4.1-.8-9.7 1.4-12.2 4.7-1.7 2.4-2.7 2.8-4.4 2-5.4-2.7-15.2 9-20.7 24.5m14.3-18.7c5-4.6 6.6-2.6 4.6 5.5-3 11.8-12.5 25.3-16.5 23.3-3.4-1.7 5-22.3 12-28.8m93.5-186.7a16.3 16.3 0 0 0 9.8 16.2c4 2 5 3.4 4 5.5a13 13 0 0 0-.4 3.3c-.1 1.4-.4 3.5-.7 4.6-.6 2.3-.5 8 .1 8.3 1 .4 8.7 1.8 9.5 1.6.4 0 2.2.1 4 .5 3.6.7 7.9 1.3 11.9 1.6 1.5 0 3.9.4 5.3.8 1.4.3 2.9.4 3.3.4.4-.1 2.1 0 3.9.4 13.6 2.6 17.1 2.4 17.3-1.2 0-1.2.3-3.4.6-4.8.6-3.2 1.2-7.7 1.5-11.4.2-2.8.7-6.3 1.7-12.1a245.2 245.2 0 0 0 2.1-16.4c1-6.7 1.6-10.5 1.7-12.8 0-1.4.3-3.4.6-4.4 1.7-5.6-.2-9.1-4.7-9-1.2 0-3.3-.3-4.8-.6l-7.8-1c-2.8-.3-6.7-.8-8.6-1.2-6-1-10.7-1.5-19-2.4-1.7-.2-4.2-.6-5.5-1-4.1-.8-5.1 1.2-6 11.9-.5 6.5-1.1 7.3-6.9 8.9-7.8 2.1-12.4 7.1-13 14.3m46-79.2c.5 1.8 1.2 3.5 1.6 3.6.3.2 1.4 1.4 2.3 2.7 1 1.4 2.5 3 3.5 3.8 1 .7 2 2 2.5 2.7.6.9 2.7 2.5 6.3 4.5a57 57 0 0 1 8 5.5c1.3 1.3 5.7 4.2 9.7 6.5 4 2.3 8.3 5.2 9.6 6.3a66 66 0 0 0 8.6 5.6c3.5 2 7.4 4.6 8.8 5.8a91 91 0 0 0 10 6.5 74 74 0 0 1 9.8 6.5c6.5 6.2 15.3 9.5 17.7 6.5.7-.9 2.3-2.3 3.6-3.2 1.3-1 2.5-2.1 2.8-2.7.3-.6 1.3-1.5 2.2-2a14 14 0 0 0 3.1-3 8 8 0 0 1 2.5-2.2c.6-.3 1.8-1.4 2.8-2.6a18 18 0 0 1 3.6-3.3c1-.6 2-1.5 2.2-2 .9-1.7 2.4-1.4 4 .7.7 1 2 2.4 2.8 3 5.6 4.7 6.5 8.4 2.5 10.8-1 .6-2.3 2-3.1 3-.8 1-2.2 2.3-3 2.9-1 .6-2 1.5-2.3 2-.3.6-1.6 1.9-3 2.8-1.3 1-2.7 2.3-3 3-.3.6-1.4 1.6-2.4 2.1-4.3 2.5-5 8.2-1.5 10.8 3.7 2.6 6.5 1.2 16-8.3 1-1 2.7-2.5 3.7-3.2 1-.8 2.3-2.1 3-3 .7-.8 2-2 3-2.7 1-.6 2-1.6 2.3-2.2a12 12 0 0 1 3-2.8c1.4-1 2.7-2.2 3-2.8.3-.6 1.3-1.5 2.3-2.1 1-.7 2.4-2 3.1-3 .7-1 2.1-2.2 3-2.8 1-.6 2-1.6 2.3-2 .3-.6 1.6-1.8 3-2.8 1.3-1 2.6-2.2 3-2.8.2-.5 1.5-1.8 2.9-2.7 1.3-1 2.7-2.3 3-2.8.3-.6 1.3-1.6 2.3-2.1 1-.6 2-1.4 2.2-2 .2-.4 1.8-2 3.4-3.4 5-4.4 5-8.2.2-10.7-3.1-1.5-7.1 0-10.3 4.1l-2.4 2.3c-.7.4-2.1 1.7-3.1 2.9s-2.3 2.3-3 2.6c-.5.2-1.5 1.1-2.2 2-.7.9-2.3 2.5-3.7 3.5a15 15 0 0 0-2.9 2.9c-.9 1.8-4.3.6-5.4-2-.2-.6-1.3-1.8-2.5-2.7-5.2-4.3-5.3-7.7-.4-11.2a12 12 0 0 0 3-2.8c.4-.6 1.4-1.6 2.4-2.2 1-.7 2.3-1.9 3-2.7.7-1 2-2.1 3-2.7 1-.7 2-1.6 2.2-2 .2-.6 1.6-1.9 3-3 4.2-3.3 6.5-8 5.4-10.6a160.9 160.9 0 0 0-11.6-22c-1.4-3-7.5-2.7-9.1.4-.3.5-1.6 1.7-3 2.8a14 14 0 0 0-3 2.8c-.3.6-1.3 1.5-2.2 2.1-1 .6-2.4 2-3.1 3-.8 1-2 2.2-2.7 2.6-.7.4-2.1 1.8-3.2 3.2-1 1.3-2.4 2.6-3 2.8-.6.3-1.8 1.5-2.7 2.8-.8 1.3-2.3 2.8-3.2 3.4a15 15 0 0 0-3.3 3.4c-.9 1.3-2.5 3-3.5 3.7-1 .7-2.1 2-2.5 2.7-.4.8-2 2.5-3.5 3.8a18 18 0 0 0-3.5 3.8c-.4.8-1.6 2-2.7 2.8-1 .8-2.6 2.4-3.4 3.6a8.6 8.6 0 0 1-3.6 3l-2.2.9-5.4-3c-8.5-4.8-10.4-7.8-6.6-10.3 1-.7 2.3-1.9 3-2.8.7-.8 2-2 3-2.6 1-.6 2-1.5 2.2-2.1.3-.6 1.7-1.9 3-3a14 14 0 0 0 3-2.8c.4-.5 1.4-1.4 2.3-2 1-.6 2.4-2 3.2-3 .8-1 2-2.2 3-2.6.8-.4 1.7-1.3 2-2 .4-.6 1.8-2 3.2-3 4.3-3 7.6-10 6.5-13.4-2.2-6.7-11.2-5.7-17.2 1.8-.7.8-1.7 1.7-2.3 2-.6.2-1.8 1.3-2.7 2.4-1 1-2.6 2.7-3.7 3.5-1.1.8-2.3 2-2.5 2.5-.3.5-1.3 1.4-2.3 2-1 .6-2.3 1.9-3 2.7-.7 1-2 2.1-2.9 2.7-.9.6-2.3 2-3 3-.8 1.1-2 2.1-2.5 2.2-.6.2-1.6 1-2.3 2a19 19 0 0 1-3.8 3.5l-2.7 1.8-4.5-2a57 57 0 0 1-8.8-5.3c-7.5-5.6-10.2-7.2-21.8-13.2l-11.3-5.8-3 .7a9.4 9.4 0 0 0-4 1.8c-.6.6-1.8 1.7-2.8 2.4a8 8 0 0 0-3.3 9.5m-36.6 72.3c5.6-4.2 9-3.2 8 2.3l-.7 5.6c-.8 10-1.8 11.8-5.6 10-6.8-3.5-7.7-13.4-1.7-17.9m-84.8 186.4c9.3-3.5 25.3 7.2 21.7 14.3-1.4 2.9-2 2.7-13.6-3-9-4.5-10.7-5.5-11-6.6-.6-1.7.7-3.9 3-4.7m105.7-203.8c1.6-.2 7 .3 14 1.4a226 226 0 0 1 21.4 3c2 .3 2.1 4.2.3 15.2-.6 3.4-1.1 8-1.4 11.3-.3 3.1-.9 7.2-1.7 12.1-.4 2-.7 4.5-.8 5.7-.4 7.8-1.6 10.6-4.3 10.2l-4.4-.6c-3.2-.2-7.2-.8-12.3-1.7l-4.7-.6c-1.5 0-7.9-.8-11.4-1.6-3.4-.7-4.2-2.3-3.3-6.6l1.2-8.5 1-7.8a161 161 0 0 0 1.6-12.2c.1-2 1-7.7 1.8-12.2l.4-4c-.1-2 .6-2.9 2.6-3.1m108.9-123c-2.5 26.3 32.2 36.4 44 12.9 10-20.2-11.8-42.1-31.3-31.4-7 3.8-12 11-12.7 18.6m13.3-7.8c6-6.5 16.6-5.6 21.5 1.8 8.3 12.4-5 27.8-18.4 21.2-8.7-4.3-10.2-15.4-3-23M567 615.1c-4.8 12.2-1.5 25 6.2 23.9a390 390 0 0 1 12.8-1.7c4-.6 4.7-.3 8 3a21 21 0 0 0 3.6 3c.7.4 2.2 1.7 3.4 3 2 2 3.6 3.4 11.1 9.9 1.5 1.2 3.8 3.3 5.1 4.7l3.4 2.9a15 15 0 0 1 2.8 2.4c1 1 3.3 3.2 5.1 4.7 7.3 6.2 9.2 8 11.5 10.2 4.6 4.7 9.2 7 11.2 5.5 2.7-2 1.3-5.7-3.7-9.4a24.3 24.3 0 0 1-3.8-3.5c-.6-.7-2-2-3.1-2.8-1.2-.8-3.2-2.5-4.4-3.8-2.2-2.2-3.4-3.3-11.5-10.2-4.6-3.9-8-7-11.4-10.2a73 73 0 0 0-5.2-4.4c-1.4-1-2.8-2.3-3.2-2.9-.3-.5-1.8-1.8-3-2.9-5-3.8-5.3-3.4 9.7-15l8.4-6.6c6.3-5 7.2-5 11.3-1 2.9 2.8 6.2 5.8 11.2 10 5 4.2 8.3 7.2 11.2 10 5.7 5.6 10.6 7.3 12.2 4 .8-1.4-1.4-5.4-4.3-7.8a380 380 0 0 1-11.2-9.9 328 328 0 0 0-11.8-10.2c-6.2-5.1-6.6-6.9-2.8-10.1.8-.8 2.5-2.7 3.7-4.3 1.2-1.6 2.7-3.3 3.5-3.8.7-.5 2-2 2.8-3 4.5-6.5 5.9-6.6 12-.8 3.2 3 4.1 3.9 10 8.9a404.4 404.4 0 0 0 17.8 15.9c5.6 4.7 8.3 7.1 10.5 9.3 1.3 1.3 3.2 3 4.4 3.8 1.2.9 3 2.5 4 3.7 4 4.4 8 5.3 9.6 2.2 1.2-2.5.6-4-2.7-6.8-3-2.5-6.7-5.8-10.8-9.5-2.5-2.4-4.5-4.1-10-9-1.2-.9-3.6-3.1-5.6-4.9a38.8 38.8 0 0 0-4.3-3.7c-.5-.2-1.8-1.4-3-2.7a45.1 45.1 0 0 0-4.9-4.3 21 21 0 0 1-3.4-3 29 29 0 0 0-3.8-3.5 70 70 0 0 1-5.8-5.3l-2.7-2.8 1.5-3c2.8-5.5 14.3-25.3 15.4-26.6 1.5-1.8 2.8-1.3 6.5 2.1l4.8 4.4a1852.9 1852.9 0 0 1 21.7 19.1l6.2 5.4c1.6 1.3 3.9 3.5 5.1 4.8 4 4.2 7.8 4.8 9.4 1.6.7-1.4-.2-4.7-1.6-5.4-.5-.3-1.8-1.3-2.8-2.4l-5.1-4.8c-7.2-6-9.2-7.8-11.5-10.1-1.3-1.3-3.3-3-4.4-3.8-1.2-.8-2.4-2-2.8-2.4a42 42 0 0 0-4.4-4c-16-13.2-17.6-15.5-16-22.3 1.9-7.4-1-14.2-6.5-15.9-4.8-1.4-18.4 2.5-25.7 7.5a239.6 239.6 0 0 0-21.1 15.2 68 68 0 0 0-8.4 7.6c-.9 1-1.9 1.9-2.2 1.9-.3 0-1.5 1.2-2.7 2.7-1.1 1.4-2.6 3-3.4 3.6-.7.5-2.4 2.3-3.7 3.8l-10.2 12a68 68 0 0 0-4.6 6A191 191 0 0 0 567 615m-17.8 66a19 19 0 0 0 1 10.5c1.1 2 .8 4.3-.8 5.4-5.4 3.9-12.8 9.5-13 10-.4.8 1.3 4.5 2.8 5.8a8 8 0 0 1 1.5 2 885.2 885.2 0 0 1 19.5 27 147 147 0 0 1 5 7.2c.6 1.4 3.6 3.2 4.5 2.8a7467 7467 0 0 1 54-39c4.5-3.3 4.5-3.8-.6-10.8a2073 2073 0 0 0-16.7-22.8l-6-8.5c-5-7.2-5.8-7.1-17.3 2-3.7 2.9-5.1 3-8.3.1-8.6-7.5-22.3-3-25.6 8.3m10.7-5.4c4.6-2.2 11.7-.8 12.6 2.7.4 1.4.2 1.6-5 5.4l-7.7 5.7c-3.2 2.5-5 1.5-5.6-2.9-.6-4.7 1.6-8.9 5.7-10.9m-3.1 26l18.4-13.4c18.8-13.7 16.8-13 20.6-7.5l7.3 10c14.2 19.4 13.8 16.7 3.5 24.3l-32.1 23.3c-3.6 2.5-1.7 4.4-19.5-19.8-2.9-4-5.5-8-5.8-9l-.5-1.8 2.4-1.9c1.2-1 3.8-3 5.7-4.3m132-214c0 1.3-.6 3.8-1.3 5.8-.6 2-1.2 4.8-1.3 6.4-.1 1.6-.6 3.6-1 4.5-1.7 3.5-.4 5.3 7.6 9.7 4.1 2.3 7.8 4.7 8.8 5.8 4.3 4.4 12.4 5.5 21.5 2.7a39.1 39.1 0 0 1 17.3-2.7c.6.3 2.2.5 3.7.5h3.6c.6 0 1.3-.7 1.9-2l1-2-4-2c-3.2-1.6-4.9-2-7.5-2.2-3.6-.2-8.5-2.6-8.7-4.2-.1-1.5 4-5.3 8.8-8a2167.5 2167.5 0 0 0 9.2-5.3c.9-.5 2.1-1.6 2.8-2.4.7-.9 1.8-1.9 2.5-2.2 1.8-1 4.4-6.8 5-10.8.2-1.8.7-4.1 1.2-5 .4-1 .9-3 1-4.4 0-1.5.3-3.3.6-4 1.7-3.3.5-7.3-2.4-8-2-.6-8.9 1.7-10.2 3.3-.5.7-1.8 2-3 2.9a24 24 0 0 0-3.3 3.3c-.7 1-2.7 2.8-4.5 4l-5.1 3.6a71 71 0 0 1-26.3 7.2l-7.1.9c-1 0-2.7.2-3.9 0-4.8-.2-6.7 1.1-6.9 4.7m115.2-140a17.6 17.6 0 0 0 13.8 20 16.5 16.5 0 0 0 18.3-25.5c-8.5-12.9-30.4-9.1-32.1 5.6m12.4-5.8c5-2.2 9.5-1.2 13 2.8 6 7.3 1.5 17-8 16.8-10.8 0-14.7-15.1-5-19.6M656.8 723c.5 1.3 6.8 4 14 6.2 2.5.7 7.2 2.5 10.5 3.9a265 265 0 0 0 14 5.4 285 285 0 0 1 13.3 5c7.5 3.2 6.9 3.7 14.6-11.7 7.8-15.6 8.1-14.2-5.5-22.2-9.3-5.5-9-5-7.4-9.7 2.5-6.9 1.3-16-2.7-19.6l-1.9-2.4c-3.6-6-18-6.5-25.4-1-2.7 2-24.3 44.4-23.5 46.2M816 412.2c.3 1.1 1.5 2.1 4.3 3.8 2 1.3 5.4 3.6 7.4 5.1 6.4 4.8 9.1 5.5 16 4 3.2-.6 4.6-.3 6.6 1.8a71 71 0 0 0 6 4.6l7.6 5.7a51.3 51.3 0 0 0 17.5 8.7c1.8-.7 2.6-3.3 1.6-5.4-1-2-10.8-8.6-23.3-15.9-9.3-5.3-9.5-5.6-9.8-10.7-.1-4-2.3-6-14.3-13.4-7.6-4.7-8.8-5-9.8-2.4l-.8 1.9 4.9 3c7.3 4.3 8 5 7.4 5.8-.6.7-1.5.4-7.7-2.7-7.7-3.8-8.5-4-9.4-2.2-1 1.8 0 2.8 6.5 6.7 6 3.7 7 4.8 5.2 5.5-1 .3-2.2-.3-7.4-3.4-7.5-4.6-10-4.7-8.5-.5M685.5 682c8.5-5.8 20.6 1 19.3 10.9-1 6.8-2 7-11.5 1.4-12.8-7.5-13.4-8.5-7.8-12.3m67.1-129c-5 12.4-6.4 22-4.9 30.5.3 1.5.5 3.7.6 4.9 0 2.7 0 2.7 4.8.8a50.7 50.7 0 0 0 18.7-15 96.8 96.8 0 0 0 13.3-27.2c.2-2 .6-3.9.8-4.3 1.9-3.8.3-20.3-2.1-21.5-2.1-1-13.1 5.7-16.7 10.2-.7.8-1.9 2-2.7 2.5-1.2 1-9.8 13.8-10.6 16.1l-1.2 3M731 604.7c1.3 1.2 17.1 9 18.4 9.2 1.3.1 2.1-1.8 1.7-4-.2-1-.3-2.4-.3-3.2 0-.8-.1-3.6-.4-6.2-.3-2.5-.4-5-.2-5.3.6-1.3-2-4-3.1-3.3l-2.9 1.7a157.8 157.8 0 0 0-11.3 7.3c-2.6 1.7-3.1 2.7-2 3.8m45.3-73.6c2.1-.1 2.1-.1 3 2 1.4 3.2-1.2 5.4-4.4 3.8-3-1.5-2-5.6 1.4-5.8m26.4-51.4a62 62 0 0 0-1 11.5l-.2 2.8c-.8 1.5 1.3 4.6 4.6 7 5.8 4.3 6.5 8.6 2.4 15.2l-1.9 3.1 1.2 3.2c4.2 11.3 8.3 15.7 18.2 19.6 17.9 7 17.3 7 20 .6 3.7-9 3.6-9.4-3.1-12l-4.5-1.9 2.2-1a25 25 0 0 1 4.9-1.7 1539 1539 0 0 0 26.1-5.7c1.5-.3 4.2-.8 6-1.3l12-2.7c15.3-3.4 15-3.1 13.6-10.3-2.2-10.9-8.4-38-9.2-40-1.1-3-1.3-3-11-.8a387.4 387.4 0 0 1-18.2 3.9l-4.4 1-11.9 2.7c-15.1 3.4-19.5 4.1-19.9 3.5-.5-.8 1-3.3 2.9-5 3.2-2.8 2.8-5-1.5-8.6a26 26 0 0 1-3.2-3.2c-2.5-3.4-4.7-2.6-10.1 3.3l-5.7 5.7c-5.6 5.2-7.2 7.3-8.3 11m-65 180.8c.5 1 1.8 2.4 3 3.2 1.3.8 3.7 2.7 5.4 4.2 1.7 1.5 4.1 3.5 5.4 4.3a39 39 0 0 1 4.3 3.5c1 1 3.4 2.9 5.3 4.1 1.8 1.3 4.1 3.2 5.2 4.2 1 1 3.4 3 5.2 4.2 1.9 1.3 4 3 5 4s2.8 2.5 4.3 3.5l6 4.6c12.4 10.8 14.7 11 20.6 2.5 1.4-2 6.5-8.4 12.6-15.7l5.3-7c1.2-1.6 3-3.7 4-4.6.9-1 2-2.4 2.5-3.3a48 48 0 0 1 4.4-5.7c2-2.3 4.3-5.3 5.2-6.6 1-1.4 2.4-3.3 3.4-4.2 1-.9 2.8-3.2 4.1-5.1 1.3-1.9 3.1-4.2 4-5.1 1-1 2.7-3 3.7-4.5a46 46 0 0 1 3.8-5c1.1-1.1 3.3-3.8 4.8-5.9l5-6.2c5.3-5.9 5.2-8.2-1-12.8a206.7 206.7 0 0 1-11.5-9.2c-8-6.2-10.4-8-13.4-10.6l-7-5.7c-7.7-5.9-8.8-6.7-11.4-9-14.8-12.3-15.7-12.4-22.7-2.7a49.4 49.4 0 0 1-4.2 5.2c-.7.6-2.3 2.7-3.6 4.5a48.4 48.4 0 0 1-4.2 5.3c-1 1-2.9 3.4-4.1 5.3a41 41 0 0 1-4.1 5c-1 1-2.6 3-3.6 4.5-1 1.6-2.7 3.7-3.7 4.8-1 1-3.2 3.7-4.8 5.9-1.6 2.1-3.8 5-5 6.3a105.5 105.5 0 0 0-19.1 24.1c-.8 1.2-2.6 3.4-4 4.9-4 4.1-6 8.7-5 10.8m13.5-9.4c2-2.3 4-4.9 4.4-5.6.4-.8 1.8-2.6 3.1-4 1.4-1.3 3.3-3.7 4.3-5.3 1-1.5 2.8-3.7 4-5l4.5-5.6 5-6.5c5.4-6.3 9.2-11.1 10.6-13.1 5.7-8.4 10-9.3 14.4-3 .3.4 2.2 2 4.2 3.4s5 3.7 6.6 5.2a29 29 0 0 0 4.2 3.3c.8.4 2.4 1.7 3.7 2.9l6.1 4.9c2 1.5 4.3 3.3 4.9 4 .6.7 2.7 2.3 4.5 3.6a55.6 55.6 0 0 1 11.3 10.1c0 .4-1 2-2.4 3.5a55 55 0 0 0-4.2 5.2 60 60 0 0 1-4.3 5.5 80.7 80.7 0 0 0-4.6 5.6c-1 1.5-3 4.1-4.4 5.7a222 222 0 0 0-4.4 5.4l-4.8 6.2c-1.5 2-4 5.2-5.7 7l-5.4 6.8a35.4 35.4 0 0 1-8 8.7c-.7 0-4.8-2.9-10.2-7.4a152 152 0 0 0-6.2-4.9c-1.8-1.3-4.7-3.5-6.4-5-4.4-3.7-9.2-7.5-14-11.2-2.3-1.8-5.5-4.3-7-5.7l-5.3-4c-4.3-2.8-4.1-4.3 1.5-10.7m60.9-66c6.3-1.7 12.4 4.4 10.6 10.5-1.4 4.6-4.3 6.7-9 6.5-9.4-.5-10.7-14.6-1.6-17m-2.5 9.7c1.9 4.8 7.4 5.2 9.7.6.9-1.7-.6-5.4-2.5-6.4-3.7-1.8-8.6 2.1-7.2 5.8m16.6 3.8c3.9-1.6 12.3 1 12.6 4l.5 2.7c1 4.4-3.1 9.7-8 10.2-2.5.2-8-3.5-8.7-6-1.8-6-.8-9 3.6-10.9m0 9.8c1.7 5.4 10 3.5 9.5-2.2-.3-2.5-.6-3-3-4.1-4-2-8 1.8-6.6 6.3m11.3 10.8c2.2.1 4.5 2.4 3.6 3.7-.8 1.2-2.9.7-4.6-1.2-1.3-1.4-.9-2.6 1-2.5m4.7-6c2.6-.1 3.7 1 3.4 3.2-.3 2.6-.8 3-3.2 2.2-3.3-.9-3.4-5.4-.2-5.4m5.3-3.7c2.6 1.1 3.2 2.6 1.3 3.7-1.3.8-2.3.3-3.6-1.8-1.6-2.5-.7-3.1 2.3-1.9"/>
  </g>
</svg>
